<svg width="32" height="32" viewBox="0 0 32 32" fill="none" xmlns="http://www.w3.org/2000/svg">
<path fill-rule="evenodd" clip-rule="evenodd" d="M2.66675 15.9997C2.66675 23.3636 8.63669 29.3331 16.0001 29.3331C23.3635 29.3331 29.3334 23.3636 29.3334 15.9997C29.3334 8.63678 23.363 2.6664 16.0001 2.6664C8.63713 2.6664 2.66675 8.63678 2.66675 15.9997ZM4.66675 15.9997C4.66675 9.74135 9.7417 4.6664 16.0001 4.6664C22.2585 4.6664 27.3334 9.74135 27.3334 15.9997C27.3334 22.259 22.2589 27.3331 16.0001 27.3331C9.74122 27.3331 4.66675 22.259 4.66675 15.9997ZM13.2744 20.0313C12.9831 20.4222 13.0141 20.9778 13.3684 21.3336C13.7581 21.7249 14.3912 21.7263 14.7826 21.3366L19.4306 16.7086L19.5279 16.5963C19.8199 16.2042 19.7875 15.6467 19.4306 15.2914L14.7826 10.6634L14.6702 10.5668C14.2781 10.2772 13.7226 10.3106 13.3684 10.6664L13.2718 10.7788C12.9822 11.1709 13.0156 11.7264 13.3714 12.0806L17.3067 16.0013L13.3714 19.9194L13.2744 20.0313Z" fill="#030D14"/>
</svg>
