<svg width="315" height="803" viewBox="0 0 315 803" fill="none" xmlns="http://www.w3.org/2000/svg">
<path d="M2.33954 484.343C2.33954 486.898 0.446206 488.96 -1.89472 488.96C-4.23118 488.96 -6.12451 486.898 -6.12451 484.343C-6.12451 481.793 -4.23118 479.731 -1.89472 479.731C0.446206 479.731 2.33954 481.793 2.33954 484.343Z" fill="#E6F4FA" fill-opacity="0.3"/>
<path d="M98.1553 225.31C98.1553 229.288 95.1968 232.52 91.5399 232.52C87.8876 232.52 84.9246 229.288 84.9246 225.31C84.9246 221.327 87.8876 218.1 91.5399 218.1C95.1968 218.1 98.1553 221.327 98.1553 225.31Z" fill="#E6F4FA" fill-opacity="0.3"/>
<path d="M66.4703 319.7C66.4703 322.249 64.577 324.311 62.2406 324.311C59.8997 324.311 58.0063 322.249 58.0063 319.7C58.0063 317.15 59.8997 315.083 62.2406 315.083C64.577 315.083 66.4703 317.15 66.4703 319.7Z" fill="#E6F4FA" fill-opacity="0.3"/>
<path d="M16.9892 213.483C16.9892 216.033 15.0959 218.1 12.7595 218.1C10.4185 218.1 8.52075 216.033 8.52075 213.483C8.52075 210.938 10.4185 208.871 12.7595 208.871C15.0959 208.871 16.9892 210.938 16.9892 213.483Z" fill="#E6F4FA" fill-opacity="0.3"/>
<path d="M70.709 119.917C70.709 122.467 68.8157 124.534 66.4703 124.534C64.1339 124.534 62.2406 122.467 62.2406 119.917C62.2406 117.368 64.1339 115.306 66.4703 115.306C68.8157 115.306 70.709 117.368 70.709 119.917Z" fill="#E6F4FA" fill-opacity="0.3"/>
<path d="M108.736 431.118C108.736 434.306 106.369 436.885 103.446 436.885C100.523 436.885 98.1553 434.306 98.1553 431.118C98.1553 427.934 100.523 425.356 103.446 425.356C106.369 425.356 108.736 427.934 108.736 431.118Z" fill="#E6F4FA" fill-opacity="0.3"/>
<path d="M184.728 308.302C184.728 311.49 182.361 314.074 179.442 314.074C176.52 314.074 174.143 311.49 174.143 308.302C174.143 305.119 176.52 302.535 179.442 302.535C182.361 302.535 184.728 305.119 184.728 308.302Z" fill="#E6F4FA" fill-opacity="0.3"/>
<path d="M184.728 145.823C184.728 149.011 182.361 151.59 179.442 151.59C176.52 151.59 174.152 149.011 174.152 145.823C174.152 142.64 176.52 140.056 179.442 140.056C182.361 140.056 184.728 142.64 184.728 145.823Z" fill="#E6F4FA" fill-opacity="0.3"/>
<path d="M39.8029 29.4372C39.8029 32.6206 37.4351 35.1995 34.5079 35.1995C31.5895 35.1995 29.2173 32.6206 29.2173 29.4372C29.2173 26.249 31.5895 23.6701 34.5079 23.6701C37.4351 23.6701 39.8029 26.249 39.8029 29.4372Z" fill="#E6F4FA" fill-opacity="0.3"/>
<path d="M67.5311 577.314C67.5311 580.502 65.1633 583.081 62.2405 583.081C59.3223 583.081 56.9456 580.502 56.9456 577.314C56.9456 574.126 59.3223 571.547 62.2405 571.547C65.1633 571.547 67.5311 574.126 67.5311 577.314Z" fill="#E6F4FA" fill-opacity="0.3"/>
<path d="M163.289 526.053C163.289 528.608 161.391 530.67 159.059 530.67C156.718 530.67 154.82 528.608 154.82 526.053C154.82 523.504 156.718 521.442 159.059 521.442C161.391 521.442 163.289 523.504 163.289 526.053Z" fill="#E6F4FA" fill-opacity="0.3"/>
<path d="M10.8079 689.283C10.8079 691.833 8.91463 693.9 6.57376 693.9C4.23289 693.9 2.3396 691.833 2.3396 689.283C2.3396 686.733 4.23289 684.671 6.57376 684.671C8.91463 684.671 10.8079 686.733 10.8079 689.283Z" fill="white" fill-opacity="0.1"/>
<path d="M257.963 399.299C257.963 401.848 256.061 403.91 253.725 403.91C251.384 403.91 249.49 401.848 249.49 399.299C249.49 396.749 251.384 394.677 253.725 394.677C256.061 394.677 257.963 396.749 257.963 399.299Z" fill="white" fill-opacity="0.1"/>
<path d="M31.6925 31.046L33.5321 31.0801L33.7201 29.2666L31.6925 31.046ZM-108.498 30.1392L-77.6496 54.6849L28.1565 32.4207L28.2371 32.3379L-108.498 30.1392ZM-111.966 29.0521L-132.887 66.3166L-79.3101 55.0407L-111.966 29.0521ZM-114.442 30.8656L-242.171 89.3169L-134.538 66.6627L-114.442 30.8656ZM-76.2755 55.7769L-30.7868 91.9737L-32.9128 86.0311L26.0931 34.2294L-76.2755 55.7769ZM-250.849 93.2949L-247.98 93.524L-249.807 92.8171L-250.849 93.2949ZM-243.299 93.9091L-153.933 101.222L-135.416 68.2227L-247.739 91.8665L-248.115 92.042L-243.299 93.9091ZM-152.545 101.329L-89.457 106.491L-31.4447 93.1194L-77.945 56.1279L-133.764 67.8766L-152.545 101.329ZM-85.0348 106.852L-40.2086 110.518L-31.5656 94.5282L-85.0348 106.852ZM-38.83 110.63L-32.3891 111.157L-29.7349 94.8987L-29.9721 94.2406L-38.83 110.63ZM-31.1448 111.259L-23.6611 111.869L-28.8755 97.3167L-31.1448 111.259ZM-22.2915 111.981L24.5623 115.812L33.3575 32.6986L28.6936 33.6785L-31.4268 86.465L-29.7439 91.1547L-28.8039 89.4144L-27.6581 89.8775L-28.4548 94.7622L-22.2915 111.981ZM-238.885 95.6251L-166.564 123.715L-154.662 102.513L-238.885 95.6251ZM-153.27 102.63L-165.252 123.963L-164.863 123.871L-93.7942 107.491L-153.27 102.63ZM67.8802 117.026L176.587 146.481L178.583 143.356L35.8864 29.6371L67.8802 117.026ZM180.06 148.134V149.645L180.615 147.666L180.06 148.134ZM177.119 148.017L175.848 149.991L177.92 148.236L177.119 148.017ZM-250.388 94.6842L-224.146 159.083L-168.215 125.197L-165.78 127.122L-165.279 124.012L-166.031 125.353L-243.563 95.2449L-250.388 94.6842ZM-250.46 97.8335L-272.007 188.084L-225.234 159.746L-250.46 97.8335ZM-164.903 129.487L-174.325 188.167L-91.404 187.689L-164.903 129.487ZM-223.64 160.326L-212.204 188.387L-175.582 188.177L-166.017 128.604L-168.305 126.796L-223.64 160.326ZM-224.732 160.984L-270.508 188.718L-213.556 188.391L-224.732 160.984ZM-87.6174 189.02L-87.0982 189.425L-86.3955 189.011L-87.6174 189.02ZM-85.9926 190.307L-84.1217 191.784L-40.9113 111.82L-89.3764 107.856L-164.196 125.099L-164.666 128.01L-89.3093 187.68L-83.9382 187.65L-83.6383 188.913L-85.9926 190.307ZM-81.9554 190.439L-46.8687 199.955L-32.6085 112.493L-39.5327 111.927L-81.9554 190.439ZM-21.7947 113.38L13.3368 211.518L14.2319 213.468L14.2364 213.41L24.4191 117.158L-21.7947 113.38ZM25.7977 115.915L66.9492 119.279L67.0656 119.727L93.7913 219.548L172.545 152.789L175.83 147.671L66.9671 118.167L66.8508 117.85L34.8435 30.4415L25.7977 115.915ZM15.5389 212.888L91.3564 221.61L92.735 220.44L65.9958 120.556L25.6589 117.26L15.5389 212.888ZM95.2325 224.939L114.143 244.04L170.155 156.528L94.1628 220.947L95.2325 224.939ZM-272.692 190.931L-190.85 245.907L-190.187 245.746L-213.006 189.742L-272.486 190.088L-272.692 190.931ZM-174.544 189.522L-183.697 246.55L-88.3067 190.142L-89.7077 189.03L-174.544 189.522ZM-188.782 245.858L-185.774 249.602L-186.047 247.94L-185.094 247.369L-175.802 189.527L-211.658 189.732L-188.782 245.858ZM-271.886 193.052L-237.055 257.231L-192.578 246.331L-271.886 193.052ZM-272.696 194.217L-270.633 265.465L-238.321 257.548L-272.696 194.217ZM115.061 244.966L144.942 275.147L178.82 154.076V149.182L173.458 153.735L115.061 244.966ZM-45.8795 201.612L-58.1928 277.17L7.79111 216.164L-45.8795 201.612ZM-80.72 192.165L-61.59 280.31L-59.6743 278.535L-47.0791 201.286L-80.72 192.165ZM-183.227 252.776L-62.8656 281.489L-62.6508 281.289L-82.2508 190.99L-83.7458 193.754L-87.1967 191.019L-183.975 248.247L-184.351 250.596L-184.19 251.581L-183.227 252.776ZM-61.2543 281.874L-60.2562 282.108L-60.0145 280.626L-61.2722 281.787L-61.2543 281.874ZM-59.0432 282.396L-57.3468 282.801L28.8413 248.349L12.1999 212.064L-23.1598 113.268L-31.3686 112.595L-45.6602 200.282L10.4409 215.492L-58.5329 279.257L-59.0432 282.396ZM-385.53 289.489L-385.248 293.565L-271.868 265.767L-273.985 192.608L-385.53 289.489ZM-387.271 295.442L-386.344 295.768L-386.38 295.227L-387.271 295.442ZM-181.858 254.487L-142.367 303.68L-64.374 282.884L-64.0517 282.586L-181.858 254.487ZM145.949 276.166L177.598 308.131L178.82 308.014V158.708L145.949 276.166ZM-183.76 254.165L-174.199 312.168L-143.727 304.041L-183.76 254.165ZM145.546 277.604L135.865 312.221L175.938 308.292L145.546 277.604ZM30.5645 249.1L60.6292 314.669L87.2699 226.426L30.5645 249.1ZM114.345 246.082L67.7459 318.895L134.527 312.353L144.539 276.585L114.345 246.082ZM-236.388 258.455L-203.056 319.86L-175.408 312.489L-185.098 253.716L-186.07 253.478L-185.779 251.649L-187.09 250.016L-191.069 247.345L-236.388 258.455ZM-385.064 296.212L-269.818 336.504L-271.828 267.142L-385.158 294.925L-385.064 296.212ZM-141.445 304.826L-113.6 339.521L-61.7466 284.565L-62.1405 283.664L-62.2793 283.005L-62.5299 282.947L-63.8011 284.122L-63.9398 284.161L-141.445 304.826ZM-264.559 337.649L-167.293 388.393L-203.655 321.406L-264.559 337.649ZM-173.98 313.499L-161.349 390.124L-114.491 340.467L-142.805 305.182L-173.98 313.499ZM-165.722 389.217L-162.477 390.904L-175.184 313.82L-202.398 321.074L-165.641 388.783L-165.722 389.217ZM-60.2338 284.848L-12.0551 390.982L59.2238 319.319L60.0787 316.487L29.3963 249.563L-57.2528 284.205L-59.2625 283.732L-59.2804 283.834L-60.2338 284.848ZM-166.089 391.255L-164.563 393.527L-163.162 392.045L-165.968 390.582L-166.089 391.255ZM61.4125 316.385L62.7956 319.397L103.647 422.708L134.142 313.742L65.2036 320.499L113.427 245.161L94.1404 225.68L93.1064 221.839L91.7234 223.009L91.4772 222.984L14.5318 214.127L30.0051 247.876L89.2437 224.193L61.4125 316.385ZM104.408 424.629L106.668 430.347L250.314 398.855L182.472 309.009L180.06 309.248V312.455L177.16 309.525L135.471 313.62L104.408 424.629ZM-384.97 297.665L-372.684 475.037L-282.449 467.28L-272.678 340.75L-271.443 340.867L-281.156 466.647L-167.503 392.088L-167.119 389.982L-268.22 337.23L-204.318 320.192L-237.659 258.767L-270.593 266.84L-268.52 338.376L-384.97 297.665ZM-112.781 340.54L-3.85074 476.246L-17.641 392.137L101.53 430.284L103.088 424.712L61.6721 319.968L60.8665 318.203L60.298 320.08L60.1816 320.192L-12.4355 393.195L-61.1693 285.838L-112.781 340.54ZM-2.27075 478.215L-1.69781 478.922L105.478 430.757L103.849 426.628L102.358 431.956L-16.0655 394.048L-2.27075 478.215ZM-163.583 394.38L-2.72281 483.134L-3.42999 478.824L-113.672 341.486L-161.081 391.728L-160.83 393.263L-161.971 392.669L-163.583 394.38ZM-162.616 396.432L-103.574 484.499L-190.725 551.628L-1.91714 486.239L-1.74707 486.283L157.779 527.448L106.037 431.966L-1.89923 480.472L-1.06671 485.557L-2.17227 484.952L-162.616 396.432ZM-166.411 393.059L-195.29 553.207L-194.628 552.978L-105.315 484.192L-165.051 395.087L-165.695 394.731L-165.458 394.477L-166.411 393.059ZM-280.86 468.036L-198.423 554.294L-196.637 553.675L-167.826 393.878L-280.86 468.036ZM-197.165 556.586L-196.906 555.186L-198.754 555.825L-199.018 555.547L-282.1 468.606L-373.825 476.494L-386.241 297.221L-391.979 295.212L-386.474 293.862L-386.819 288.88L-274.343 191.19L-274.402 191.078L-275.646 191.833L-276.246 190.653L-275.033 189.917L-275.664 188.752L-273.448 188.742L-250.979 94.6404L-253.513 94.4259L-253.705 93.134L-251.539 92.1444L-252.967 91.5935L-248.097 90.5697L-111.376 28.004L-111.787 28.7352L29.7544 31.0167L33.9215 27.3507L34.0155 26.4781L34.4899 26.8584L34.7764 26.6097L35.0181 27.2727L180.293 143.044L177.871 146.832L179.165 147.178L182.938 143.98L180.06 154.276V307.892L183.014 307.6L183.224 307.878L252.588 399.737L107.277 431.591L160.33 529.495L-1.86792 487.643L-194.072 554.207L-197.165 556.586Z" fill="#E6F4FA" fill-opacity="0.3"/>
<path d="M91.0341 473.145L158.544 524.84L178.574 313.469L104.001 431.425L91.0341 473.145ZM-387.633 299.678L-286.563 628.351L-279.451 471.298L-387.633 299.678ZM-198.459 558.277L-283.815 630.866L-82.5059 594.874L-198.459 558.277ZM-286.791 633.401L-286.728 632.056L-390.211 295.544L-389.115 294.944L-278.193 470.908L-285.421 630.52L-198.719 556.786L-198.414 556.888L-79.9323 594.279L-1.87238 483.202L57.8139 575.837L89.5705 473.672L-15.8283 392.956L-105.19 486.059L-83.7278 191.19L-82.488 191.297L-103.695 482.632L-15.9491 391.216L89.9823 472.336L102.931 430.738L178.928 310.53L180.056 310.978L159.565 527.272L90.6223 474.481L58.2033 578.796L-1.91714 485.489L-79.4623 595.834L-79.7398 595.747L-285.847 632.602L-286.791 633.401Z" fill="#E6F4FA" fill-opacity="0.3"/>
<path d="M6.72144 690.404L-79.7129 595.995L-155.7 672.523L-196.834 555.303L-195.679 554.816L-155.199 670.173L-79.6816 594.118L-79.2608 594.581L6.42603 688.167L61.3947 577.602L-104.617 485.006L-281.93 466.929L-281.814 465.584L-104.263 483.685L-104.156 483.748L63.0866 577.031L6.72144 690.404Z" fill="#E6F4FA" fill-opacity="0.3"/>
<path d="M-157.343 667.57L-373.642 480.263L-373.024 479.102L-201.315 554.397L62.1287 576.632L163.029 525.444L163.548 526.668L62.3569 578.002L62.1913 577.987L-201.601 555.723L-201.686 555.689L-369.533 482.091L-156.573 666.512L-157.343 667.57Z" fill="#E6F4FA" fill-opacity="0.3"/>
<path d="M-155.222 673.727L-155.678 672.469L61.4125 578.825L-16.4594 388.803L-15.327 388.252L63.0731 579.566L-155.222 673.727Z" fill="#E6F4FA" fill-opacity="0.3"/>
<path d="M69.8721 191.243C69.8721 198.385 64.5592 204.172 58.0064 204.172C51.4582 204.172 46.1453 198.385 46.1453 191.243C46.1453 184.102 51.4582 178.31 58.0064 178.31C64.5592 178.31 69.8721 184.102 69.8721 191.243Z" fill="white" fill-opacity="0.1"/>
<path d="M50.554 463.298C50.554 472.95 43.3701 480.779 34.5123 480.779C25.65 480.779 18.4662 472.95 18.4662 463.298C18.4662 453.635 25.65 445.806 34.5123 445.806C43.3701 445.806 50.554 453.635 50.554 463.298Z" fill="white" fill-opacity="0.1"/>
<path d="M145.197 314.074C145.197 320.431 140.47 325.589 134.638 325.589C128.802 325.589 124.075 320.431 124.075 314.074C124.075 307.712 128.802 302.559 134.638 302.559C140.47 302.559 145.197 307.712 145.197 314.074Z" fill="white" fill-opacity="0.1"/>
<path d="M126.698 653.803C126.698 660.94 121.39 666.731 114.833 666.731C108.284 666.731 102.971 660.94 102.971 653.803C102.971 646.661 108.284 640.87 114.833 640.87C121.39 640.87 126.698 646.661 126.698 653.803Z" fill="white" fill-opacity="0.1"/>
<path d="M32.4354 115.915C32.4354 119.912 29.4679 123.154 25.8021 123.154C22.1319 123.154 19.1599 119.912 19.1599 115.915C19.1599 111.917 22.1319 108.676 25.8021 108.676C29.4679 108.676 32.4354 111.917 32.4354 115.915Z" fill="white" fill-opacity="0.1"/>
<path d="M46.4451 770.413C46.4451 774.41 43.4686 777.647 39.8028 777.647C36.1371 777.647 33.165 774.41 33.165 770.413C33.165 766.42 36.1371 763.174 39.8028 763.174C43.4686 763.174 46.4451 766.42 46.4451 770.413Z" fill="white" fill-opacity="0.1"/>
<path d="M35.0315 595.054C35.0315 600.617 30.9002 605.126 25.8022 605.126C20.6997 605.126 16.564 600.617 16.564 595.054C16.564 589.497 20.6997 584.992 25.8022 584.992C30.9002 584.992 35.0315 589.497 35.0315 595.054Z" fill="white" fill-opacity="0.1"/>
<path d="M151.839 467.909C151.839 471.902 148.867 475.144 145.206 475.144C141.536 475.144 138.559 471.902 138.559 467.909C138.559 463.907 141.536 460.67 145.206 460.67C148.867 460.67 151.839 463.907 151.839 467.909Z" fill="white" fill-opacity="0.1"/>
<path d="M25.7977 308.302C25.7977 312.299 22.8257 315.541 19.1599 315.541C15.4942 315.541 12.5222 312.299 12.5222 308.302C12.5222 304.309 15.4942 301.067 19.1599 301.067C22.8257 301.067 25.7977 304.309 25.7977 308.302Z" fill="white" fill-opacity="0.1"/>
<path d="M169.927 90.0237C169.927 94.0212 166.959 97.2631 163.289 97.2631C159.623 97.2631 156.651 94.0212 156.651 90.0237C156.651 86.0262 159.623 82.7892 163.289 82.7892C166.959 82.7892 169.927 86.0262 169.927 90.0237Z" fill="white" fill-opacity="0.1"/>
<path d="M216.324 583.081C216.324 587.074 213.352 590.321 209.682 590.321C206.016 590.321 203.048 587.074 203.048 583.081C203.048 579.084 206.016 575.842 209.682 575.842C213.352 575.842 216.324 579.084 216.324 583.081Z" fill="white" fill-opacity="0.1"/>
<path d="M303.814 503.95C303.814 507.953 300.842 511.185 297.177 511.185C293.511 511.185 290.539 507.953 290.539 503.95C290.539 499.953 293.511 496.716 297.177 496.716C300.842 496.716 303.814 499.953 303.814 503.95Z" fill="white" fill-opacity="0.1"/>
<path d="M209.686 686.66C209.686 690.658 206.714 693.9 203.048 693.9C199.378 693.9 196.406 690.658 196.406 686.66C196.406 682.668 199.378 679.426 203.048 679.426C206.714 679.426 209.686 682.668 209.686 686.66Z" fill="white" fill-opacity="0.1"/>
<path d="M241.465 380.042C241.465 384.04 238.493 387.282 234.827 387.282C231.161 387.282 228.189 384.04 228.189 380.042C228.189 376.05 231.161 372.808 234.827 372.808C238.493 372.808 241.465 376.05 241.465 380.042Z" fill="white" fill-opacity="0.1"/>
<path d="M303.814 302.54C303.814 306.537 300.842 309.774 297.177 309.774C293.511 309.774 290.539 306.537 290.539 302.54C290.539 298.537 293.511 295.3 297.177 295.3C300.842 295.3 303.814 298.537 303.814 302.54Z" fill="white" fill-opacity="0.1"/>
<path d="M234.827 218.1C234.827 222.097 231.851 225.339 228.189 225.339C224.519 225.339 221.547 222.097 221.547 218.1C221.547 214.102 224.519 210.865 228.189 210.865C231.851 210.865 234.827 214.102 234.827 218.1Z" fill="white" fill-opacity="0.1"/>
<path d="M-182.919 771.183L-183.196 770.925L-360.89 606.979L-286.567 516.767L-285.645 517.669L-359.117 606.842L-182.672 769.643L113.646 650.873L114.081 652.146L-182.919 771.183Z" fill="white" fill-opacity="0.1"/>
<path d="M26.3661 595.898L-100.351 562.923L-279.589 522.1L-279.339 520.779L-100.083 561.612L25.2381 594.216L33.8945 463.244L35.1299 463.342L26.3661 595.898Z" fill="white" fill-opacity="0.1"/>
<path d="M145.851 468.626L33.9528 461.309L33.8946 460.743L18.5468 305.743L19.7732 305.596L35.0718 460.031L144.548 467.193L137.942 315.575L139.181 315.507L145.851 468.626Z" fill="white" fill-opacity="0.1"/>
<path d="M-178.966 771.344L-225.655 683.535L-224.585 682.863L-178.523 769.477L-61.5856 693.105L-61.2678 693.324L40.1295 762.603L39.476 763.749L-61.599 694.694L-178.966 771.344Z" fill="white" fill-opacity="0.1"/>
<path d="M-61.5676 694.582L-61.6661 694.573L-225.977 674.395L-225.838 673.054L-61.6258 693.217L113.946 653.315L34.4721 465.872L35.6 465.301L115.723 654.286L114.962 654.461L-61.5676 694.582Z" fill="white" fill-opacity="0.1"/>
<path d="M-149.524 341.506L34.8614 464.682L134.043 313.816L162.559 90.8476L26.3975 116.49L19.7597 306.23L-149.524 341.506ZM-285.417 293.969L-278.904 519.502L-210.983 421.265L-285.417 293.969ZM-210.275 422.484L-277.589 519.843L-179.665 474.832L-210.275 422.484ZM-280.032 523.377L-286.796 289.094L-210.19 420.115L-155.799 341.437L-155.566 341.389L18.5602 305.104L25.1979 115.345L164.018 89.2048L135.229 314.332L135.144 314.469L35.2016 466.496L34.7092 466.164L-147.872 344.197L-67.0014 441.74L-178.59 473.174L-178.899 471.868L-69.2886 440.99L-151.439 341.905L-155.096 342.671L-209.479 421.329L-177.829 475.456L-178.51 475.768L-279.075 521.988L-280.032 523.377Z" fill="white" fill-opacity="0.1"/>
<path d="M40.1161 771.09H-172.91V769.74H39.485L117.411 653.398L118.413 654.203L40.1161 771.09Z" fill="white" fill-opacity="0.1"/>
<path d="M204.078 684.72L202.838 684.623L208.979 584.427L115.186 654.359L114.488 653.242L210.389 581.741L204.078 684.72Z" fill="white" fill-opacity="0.1"/>
<path d="M209.35 583.652L34.1766 461.235L34.8435 460.104L207.752 580.931L143.921 466.915L145.331 467.246L299.088 503.292L298.828 504.608L146.482 468.899L210.214 582.73L209.35 583.652Z" fill="white" fill-opacity="0.1"/>
<path d="M-61.5363 694.777L-61.957 694.446L-278.139 523.324L-223.99 677.286L-225.386 676.569L-360.733 607.276L-360.603 606.74L-319.72 436.071L-319.125 436.232L-178.595 474.491L-178.895 475.797L-318.83 437.704L-359.274 606.54L-226.25 674.639L-280.793 519.555L-61.6527 693.017L26.0349 599.578L-68.662 444.5L-67.628 443.754L27.6328 599.764L-61.5363 694.777Z" fill="white" fill-opacity="0.1"/>
<path d="M-47.9429 14.4515L26.3303 115.554L26.3617 115.627L58.2212 190.142L162.067 90.2967L-47.9429 14.4515ZM19.2405 308.95L-88.8259 273.743L-88.9289 273.416L-124.221 162.491L56.9635 190.4L25.2695 116.271L-51.5237 11.7312L164.511 89.7507L58.7628 191.419L59.0537 192.087L-122.386 164.138L-87.8636 272.646L19.5986 307.658L19.2405 308.95Z" fill="white" fill-opacity="0.1"/>
<path d="M-122.292 166.556L-122.664 165.269L23.6985 115.271L24.07 116.558L-122.292 166.556Z" fill="white" fill-opacity="0.1"/>
<path d="M34.5258 465.969L-88.7498 273.743L-330.462 166.542L-329.992 165.294L-87.9396 272.646L-87.8367 272.812L35.5418 465.199L34.5258 465.969Z" fill="white" fill-opacity="0.1"/>
<path d="M20.2877 307.668L133.43 313.338L58.1808 192.72L20.2877 307.668ZM20.8383 309.053L145.26 464.629L233.78 380.145L134.455 314.742L20.8383 309.053ZM145.139 466.539L144.736 466.028L19.4776 309.408L-63.5774 441.75L-64.5979 440.985L18.6361 308.355L18.0006 307.561L18.9897 307.605L57.8317 189.771L134.732 313.021L227.751 213L228.623 213.971L135.641 313.947L235.87 379.945L145.139 466.539Z" fill="white" fill-opacity="0.1"/>
<path d="M203.585 686.992L202.507 686.334L295.082 506.641L210.483 580.273L209.708 579.215L296.792 503.424L297.718 504.282L203.585 686.992Z" fill="white" fill-opacity="0.1"/>
<path d="M134.679 314.747L134.594 313.396L297.136 301.867L297.217 303.212L134.679 314.747Z" fill="white" fill-opacity="0.1"/>
<path d="M26.8271 594.045L113.803 648.177L144.235 469.869L26.8271 594.045ZM39.8431 771.134L39.6059 771.051L-225.86 676.413L-225.722 675.804L-152.138 342.461L-318.436 437.172L-277.092 521.125L-278.188 521.759L-320.119 436.607L-150.294 339.887L-224.383 675.516L39.7625 769.686L201.428 686.743L113.159 651.95L113.561 649.581L24.7772 594.328L25.368 593.704L146.164 465.945L114.94 648.884L118.221 650.922L117.603 652.097L114.703 650.288L114.568 651.068L204.66 686.582L39.8431 771.134Z" fill="white" fill-opacity="0.1"/>
<path d="M-99.8635 564.839L-100.548 563.723L32.8965 466.335L-178.725 473.199L-178.765 471.843L37.1665 464.843L-99.8635 564.839Z" fill="white" fill-opacity="0.1"/>
<path d="M235.44 379.857L296.559 501.318V302.793L228.883 219.972L235.44 379.857ZM296.635 504.277L234.21 380.232L234.205 380.076L227.59 218.685L58.1137 191.945L-88.0651 273.797L-88.629 272.592L57.9034 190.546L227.039 217.237L162.747 90.3553L163.718 89.5411L235.257 165.435L234.393 166.4L165.853 93.6898L228.579 217.481L228.785 217.51L228.794 217.832L297.799 302.281V503.95L296.635 504.277Z" fill="white" fill-opacity="0.1"/>
<path d="M40.613 772.797L39.2971 770.808L-97.9568 562.665L-96.9497 561.875L38.9882 768.024L25.1845 594.245L26.4199 594.133L40.613 772.797Z" fill="white" fill-opacity="0.1"/>
<path d="M235.293 380.491L234.362 379.599L296.711 302.091L297.642 302.983L235.293 380.491Z" fill="white" fill-opacity="0.1"/>
<path d="M298.184 505.476L296.836 504.521L18.1259 306.235L18.8018 305.104L296.169 502.429L227.643 218.519L-50.0825 13.652L-49.6036 12.4333L73.8241 41.6784L73.5601 42.9946L-46.7211 14.4954L228.726 217.685L228.785 217.929L298.184 505.476Z" fill="white" fill-opacity="0.1"/>
<path d="M237.808 165.913C237.808 167.707 236.479 169.164 234.827 169.164C233.18 169.164 231.842 167.707 231.842 165.913C231.842 164.119 233.18 162.661 234.827 162.661C236.479 162.661 237.808 164.119 237.808 165.913Z" fill="#D1EBF6" fill-opacity="0.3"/>
<path d="M232.464 218.139L231.224 218.061L234.205 162.627L235.445 162.7L232.464 218.139Z" fill="white" fill-opacity="0.1"/>
<path d="M121.806 753.238C121.806 755.578 120.065 757.484 117.908 757.484C115.759 757.484 114.018 755.578 114.018 753.238C114.018 750.893 115.759 748.992 117.908 748.992C120.065 748.992 121.806 750.893 121.806 753.238Z" fill="white" fill-opacity="0.1"/>
<path d="M-49.7109 798.78L-49.8541 798.746L-178.868 771.071L-178.626 769.75L-49.7557 797.386L39.6327 769.76L117.276 752.687L114.215 653.822L115.455 653.779L118.548 753.789L39.9237 771.071L-49.7109 798.78Z" fill="white" fill-opacity="0.1"/>
<path d="M118.275 753.789L117.549 752.687L202.149 686.534L32.6816 461.099L33.644 460.246L203.943 686.792L203.406 687.211L118.275 753.789Z" fill="white" fill-opacity="0.1"/>
<path d="M265.747 599.671C265.747 602.016 264.006 603.917 261.848 603.917C259.7 603.917 257.954 602.016 257.954 599.671C257.954 597.331 259.7 595.43 261.848 595.43C264.006 595.43 265.747 597.331 265.747 599.671Z" fill="white" fill-opacity="0.1"/>
<path d="M314.257 392.089C314.257 394.433 312.511 396.33 310.363 396.33C308.214 396.33 306.469 394.433 306.469 392.089C306.469 389.739 308.214 387.838 310.363 387.838C312.511 387.838 314.257 389.739 314.257 392.089Z" fill="white" fill-opacity="0.1"/>
<path d="M262.068 600.89L144.754 468.377L145.645 467.436L261.633 598.452L296.572 503.78L309.53 392.006L310.761 392.171L297.781 504.126L297.754 504.204L262.068 600.89Z" fill="white" fill-opacity="0.1"/>
<path d="M235.36 380.808L211.123 576.495L271.651 386.307L235.36 380.808ZM210.272 583.301L209.073 582.993L234.295 379.282L272.067 385.01L298.291 302.608L234.894 166.22L236.004 165.611L299.634 302.51L299.544 302.783L273.316 385.2L314.342 391.416L314.167 392.756L272.904 386.497L210.272 583.301Z" fill="white" fill-opacity="0.1"/>
<path d="M203.541 685.076L202.547 684.267L261.356 599.266L262.35 600.08L203.541 685.076Z" fill="#E6E6E6" fill-opacity="0.3"/>
<path d="M309.535 392.176L298.349 302.652L299.576 302.467L310.761 391.991L309.535 392.176Z" fill="#E6E6E6" fill-opacity="0.3"/>
<path d="M76.6754 42.3365C76.6754 44.1305 75.3371 45.5881 73.6899 45.5881C72.0428 45.5881 70.709 44.1305 70.709 42.3365C70.709 40.5425 72.0428 39.0849 73.6899 39.0849C75.3371 39.0849 76.6754 40.5425 76.6754 42.3365Z" fill="#D1EBF6" fill-opacity="0.3"/>
<path d="M-283.313 295.51L-284.49 295.095L-212.213 53.8805L57.4917 190.234L73.1753 41.3127L163.562 89.4192L163.016 90.6331L74.2047 43.3602L58.5256 192.252L57.7468 191.853L-211.466 55.7427L-283.313 295.51Z" fill="white" fill-opacity="0.1"/>
</svg>
