<svg width="209" height="171" viewBox="0 0 209 171" fill="none" xmlns="http://www.w3.org/2000/svg">
<path d="M62.0261 11.579C58.4515 11.579 55.4892 14.3729 55.4892 17.7448V23.9115H35.8785C34.1672 23.9115 32.4314 24.5011 31.2049 25.6696C29.9671 26.8256 29.3416 28.4635 29.3416 30.0773V153.402C29.3416 155.016 29.9671 156.654 31.2049 157.822C32.4314 158.978 34.1672 159.569 35.8785 159.569H173.155C174.866 159.569 176.602 158.978 177.841 157.822C179.066 156.654 179.692 155.016 179.692 153.402V30.0773C179.692 28.4635 179.066 26.8256 177.841 25.6696C176.602 24.5011 174.866 23.9115 173.155 23.9115H153.544V17.7448C153.544 14.3729 150.582 11.579 147.007 11.579H140.47C136.895 11.579 133.933 14.3729 133.933 17.7448V23.9115H75.1V17.7448C75.1 14.3729 72.1377 11.579 68.5631 11.579H62.0261ZM62.0261 17.7448H68.5631V36.244H62.0261V17.7448ZM140.47 17.7448H147.007V36.244H140.47V17.7448ZM35.8785 30.0773H55.4892V36.244C55.4892 39.6159 58.4515 42.4098 62.0261 42.4098H68.5631C72.1377 42.4098 75.1 39.6159 75.1 36.244V30.0773H133.933V36.244C133.933 39.6159 136.895 42.4098 140.47 42.4098H147.007C150.582 42.4098 153.544 39.6159 153.544 36.244V30.0773H173.155V51.6589H35.8785V30.0773ZM35.8785 57.8256H173.155V153.402H35.8785V57.8256ZM55.4892 70.1581V141.07H153.544V70.1581H55.4892ZM62.0261 76.3239H78.3684V91.7397H62.0261V76.3239ZM84.9054 76.3239H101.248V91.7397H84.9054V76.3239ZM107.785 76.3239H124.128V91.7397H107.785V76.3239ZM130.665 76.3239H147.007V91.7397H130.665V76.3239ZM62.0261 97.9064H78.3684V113.322H62.0261V97.9064ZM84.9054 97.9064H101.248V113.322H84.9054V97.9064ZM130.665 97.9064H147.007V113.322H130.665V97.9064ZM62.0261 119.488H78.3684V134.904H62.0261V119.488ZM84.9054 119.488H101.248V134.904H84.9054V119.488ZM107.785 119.488H124.128V134.904H107.785V119.488ZM130.665 119.488H147.007V134.904H130.665V119.488Z" fill="#87929A"/>
</svg>
