<svg width="106" height="110" viewBox="0 0 106 110" fill="none" xmlns="http://www.w3.org/2000/svg">
<path d="M0.725098 15.6916C0.725098 15.0107 0.914013 14.3285 1.48076 13.8181L15.0758 1.55322C15.6425 1.04161 16.3968 0.872314 17.1524 0.872314C17.9081 0.872314 18.6638 1.21214 19.2291 1.55322L53.2159 32.3855L87.3916 1.72375C87.9584 1.21214 88.714 1.04161 89.4697 1.04161C90.224 1.04161 90.9796 1.38268 91.5464 1.72375L105.141 13.9874C106.273 15.0107 106.273 16.543 105.141 17.565L55.6704 62.1945C55.1051 62.7061 54.1605 63.0471 53.4048 62.8766C52.6506 62.8766 51.706 62.7061 51.1392 62.1945L1.48076 17.565C0.914013 17.0546 0.725098 16.3725 0.725098 15.6916ZM17.1524 7.00416L7.52328 15.6916L53.2159 56.9141L98.9099 15.6916L89.2808 7.00416L55.1051 37.8364C53.9716 38.8584 52.2727 38.8584 51.1392 37.8364L17.1524 7.00416Z" fill="#556069"/>
<path d="M0.725098 62.7061C0.725098 62.024 0.914013 61.3431 1.48076 60.8327L15.0758 48.5678C15.6425 48.0562 16.3968 47.8856 17.1524 47.8856C17.9081 47.8856 18.6638 48.2267 19.2291 48.5678L53.2159 79.4L87.3916 48.7383C87.9584 48.2267 88.714 48.0562 89.4697 48.0562C90.224 48.0562 90.9796 48.3972 91.5464 48.7383L105.141 61.002C106.273 62.024 106.273 63.5576 105.141 64.5795L55.6704 109.209C55.1051 109.721 54.1605 110.062 53.4048 109.891C52.6506 109.891 51.706 109.721 51.1392 109.209L1.48076 64.5795C0.914013 64.0692 0.725098 63.387 0.725098 62.7061ZM17.1524 54.1892L7.52328 62.8767L53.2159 103.929L98.9099 62.7061L89.2808 54.0187L55.1051 84.851C53.9716 85.8729 52.2727 85.8729 51.1392 84.851L17.1524 54.1892Z" fill="#556069"/>
</svg>
