<svg width="718" height="604" viewBox="0 0 718 604" fill="none" xmlns="http://www.w3.org/2000/svg">
<path d="M255.184 170.65C257.106 166.607 259.262 162.639 261.573 158.821C259.184 162.629 257.054 166.572 255.184 170.65ZM274.119 141.266C277.115 137.674 280.274 134.24 283.588 130.963C280.186 134.175 277.031 137.61 274.119 141.266ZM293.979 121.577C297.446 118.751 301.062 116.079 304.757 113.64C300.981 116.038 297.388 118.683 293.979 121.577ZM307.22 111.882C306.6 112.246 306.01 112.655 305.451 113.105C306.451 112.416 307.376 111.805 308.376 111.197L307.22 111.882ZM322.078 53.877C323.156 53.42 324.234 53.1142 325.389 52.7312C326.675 52.2065 327.983 51.7495 329.314 51.36C326.928 52.1228 324.464 52.8857 322.078 53.877ZM328.236 100.588C326.928 101.196 325.62 101.73 324.311 102.419C326.159 101.579 328.006 100.739 329.931 99.8987C329.314 100.13 328.775 100.359 328.236 100.604V100.588ZM346.019 94.1758C345.171 94.4043 344.324 94.7101 343.48 95.0159C345.019 94.4816 346.788 94.0245 348.482 93.4902C347.635 93.7928 346.788 93.9473 346.019 94.1758ZM379.428 88.6041C381.97 88.5269 384.434 88.4529 386.972 88.4529C389.514 88.4529 391.978 88.5269 394.516 88.6041C389.488 88.2984 384.456 88.2984 379.428 88.6041ZM394.516 88.6041C399.444 88.9099 404.372 89.367 409.221 90.1298C404.346 89.3541 399.447 88.8456 394.516 88.6041ZM428.004 94.1758C427.54 94.0245 427.156 93.9473 426.696 93.7928C426.381 93.7799 426.072 93.7284 425.77 93.6415C427.387 94.0986 429.004 94.4816 430.62 95.0159C429.695 94.7101 428.851 94.4977 428.004 94.1758ZM466.724 111.882L465.568 111.197C466.571 111.805 467.493 112.416 468.493 113.105C467.935 112.651 467.344 112.246 466.724 111.882ZM469.188 113.64C472.882 116.079 476.501 118.751 479.965 121.577C476.557 118.683 472.963 116.038 469.188 113.64ZM490.356 130.963C493.661 134.24 496.819 137.674 499.825 141.266C496.913 137.61 493.758 134.175 490.356 130.963ZM512.372 158.821C514.683 162.639 516.838 166.607 518.763 170.65C516.89 166.572 514.761 162.629 512.372 158.821Z" fill="#556069"/>
<path d="M347.112 436.271H426.832C427.293 436.271 427.75 436.294 428.208 436.335C428.666 436.38 429.117 436.448 429.568 436.538C430.019 436.625 430.464 436.738 430.906 436.87C431.344 437.002 431.776 437.153 432.201 437.33C432.626 437.504 433.038 437.697 433.444 437.913C433.85 438.125 434.243 438.36 434.626 438.614C435.006 438.865 435.376 439.139 435.729 439.425C436.087 439.715 436.424 440.021 436.752 440.343C437.077 440.665 437.385 441.003 437.674 441.353C437.966 441.707 438.239 442.071 438.495 442.451C438.748 442.828 438.985 443.22 439.203 443.619C439.42 444.022 439.615 444.434 439.79 444.855C439.966 445.274 440.122 445.702 440.255 446.14C440.388 446.574 440.498 447.015 440.589 447.463C440.68 447.91 440.745 448.361 440.79 448.814C440.836 449.265 440.858 449.719 440.858 450.176V468.159C440.858 468.613 440.836 469.067 440.79 469.521C440.745 469.975 440.68 470.425 440.589 470.869C440.498 471.317 440.388 471.758 440.255 472.195C440.122 472.63 439.966 473.058 439.79 473.48C439.615 473.901 439.42 474.31 439.203 474.713C438.985 475.115 438.748 475.504 438.495 475.884C438.239 476.261 437.966 476.628 437.674 476.979C437.385 477.333 437.077 477.667 436.752 477.989C436.424 478.311 436.087 478.617 435.729 478.907C435.376 479.196 435.006 479.467 434.626 479.721C434.243 479.972 433.85 480.207 433.444 480.423C433.038 480.635 432.626 480.831 432.201 481.005C431.776 481.179 431.344 481.334 430.906 481.465C430.464 481.597 430.019 481.707 429.568 481.797C429.117 481.884 428.666 481.952 428.208 481.997C427.75 482.042 427.293 482.064 426.832 482.064H347.112C346.651 482.064 346.194 482.042 345.736 481.997C345.282 481.952 344.827 481.884 344.376 481.797C343.925 481.707 343.48 481.597 343.042 481.465C342.6 481.334 342.168 481.179 341.743 481.005C341.321 480.831 340.906 480.635 340.5 480.423C340.094 480.207 339.701 479.972 339.318 479.721C338.939 479.467 338.568 479.196 338.215 478.907C337.861 478.617 337.52 478.311 337.195 477.989C336.871 477.667 336.562 477.333 336.27 476.979C335.978 476.628 335.705 476.261 335.449 475.884C335.196 475.504 334.959 475.115 334.741 474.713C334.527 474.31 334.329 473.901 334.154 473.48C333.978 473.058 333.823 472.63 333.689 472.195C333.556 471.758 333.446 471.317 333.355 470.869C333.267 470.425 333.199 469.975 333.154 469.521C333.108 469.067 333.086 468.613 333.086 468.159V450.176C333.086 449.719 333.108 449.265 333.154 448.811C333.199 448.361 333.267 447.91 333.355 447.463C333.446 447.015 333.556 446.574 333.689 446.14C333.823 445.702 333.978 445.274 334.154 444.855C334.329 444.434 334.527 444.022 334.741 443.619C334.959 443.22 335.196 442.828 335.449 442.451C335.705 442.071 335.978 441.707 336.27 441.353C336.562 441.003 336.871 440.665 337.195 440.343C337.52 440.021 337.861 439.715 338.215 439.425C338.568 439.139 338.939 438.865 339.318 438.614C339.701 438.36 340.094 438.125 340.5 437.913C340.906 437.697 341.321 437.504 341.743 437.33C342.168 437.153 342.6 437.002 343.042 436.87C343.48 436.738 343.925 436.625 344.376 436.538C344.827 436.448 345.282 436.38 345.736 436.335C346.194 436.294 346.651 436.271 347.112 436.271Z" fill="#556069"/>
<path d="M347.112 501.708H426.832C427.293 501.708 427.75 501.731 428.208 501.776C428.666 501.821 429.117 501.888 429.568 501.975C430.019 502.065 430.464 502.175 430.906 502.307C431.344 502.439 431.776 502.593 432.201 502.767C432.626 502.941 433.038 503.137 433.444 503.35C433.85 503.565 434.243 503.8 434.626 504.051C435.006 504.306 435.376 504.576 435.729 504.866C436.087 505.155 436.424 505.461 436.752 505.783C437.077 506.105 437.385 506.44 437.674 506.794C437.966 507.145 438.239 507.512 438.495 507.888C438.748 508.268 438.985 508.657 439.203 509.06C439.42 509.462 439.615 509.874 439.79 510.293C439.966 510.714 440.122 511.142 440.255 511.577C440.388 512.015 440.498 512.456 440.589 512.903C440.68 513.347 440.745 513.798 440.79 514.252C440.836 514.705 440.858 515.159 440.858 515.616V533.596C440.858 534.053 440.836 534.507 440.79 534.961C440.745 535.412 440.68 535.862 440.589 536.31C440.498 536.757 440.388 537.198 440.255 537.633C440.122 538.07 439.966 538.498 439.79 538.917C439.615 539.339 439.42 539.751 439.203 540.153C438.985 540.552 438.748 540.945 438.495 541.321C438.239 541.701 437.966 542.068 437.674 542.419C437.385 542.77 437.077 543.108 436.752 543.43C436.424 543.751 436.087 544.057 435.729 544.347C435.376 544.637 435.006 544.907 434.626 545.158C434.243 545.412 433.85 545.647 433.444 545.86C433.038 546.075 432.626 546.269 432.201 546.446C431.776 546.619 431.344 546.771 430.906 546.903C430.464 547.035 430.019 547.147 429.568 547.234C429.117 547.324 428.666 547.392 428.208 547.437C427.75 547.482 427.293 547.501 426.832 547.501H347.112C346.651 547.501 346.194 547.482 345.736 547.437C345.282 547.392 344.827 547.324 344.376 547.234C343.925 547.147 343.48 547.035 343.042 546.903C342.6 546.771 342.168 546.619 341.743 546.446C341.321 546.269 340.906 546.075 340.5 545.86C340.094 545.647 339.701 545.412 339.318 545.158C338.939 544.907 338.568 544.637 338.215 544.347C337.861 544.057 337.52 543.751 337.195 543.43C336.871 543.108 336.562 542.77 336.27 542.419C335.978 542.068 335.705 541.701 335.449 541.321C335.196 540.945 334.959 540.552 334.741 540.153C334.527 539.751 334.329 539.339 334.154 538.917C333.978 538.498 333.823 538.07 333.689 537.633C333.556 537.198 333.446 536.757 333.355 536.31C333.267 535.862 333.199 535.412 333.154 534.961C333.108 534.507 333.086 534.053 333.086 533.596V515.616C333.086 515.159 333.108 514.705 333.154 514.252C333.199 513.798 333.267 513.347 333.355 512.903C333.446 512.456 333.556 512.015 333.689 511.577C333.823 511.142 333.978 510.714 334.154 510.293C334.329 509.874 334.527 509.462 334.741 509.06C334.959 508.657 335.196 508.268 335.449 507.888C335.705 507.512 335.978 507.145 336.27 506.794C336.562 506.44 336.871 506.105 337.195 505.783C337.52 505.461 337.861 505.155 338.215 504.866C338.568 504.576 338.939 504.306 339.318 504.051C339.701 503.8 340.094 503.565 340.5 503.35C340.906 503.137 341.321 502.941 341.743 502.767C342.168 502.593 342.6 502.439 343.042 502.307C343.48 502.175 343.925 502.065 344.376 501.975C344.827 501.888 345.282 501.821 345.736 501.776C346.194 501.731 346.651 501.708 347.112 501.708Z" fill="#556069"/>
<path d="M579.191 224.992C579.191 223.772 579.191 222.549 579.038 221.329C578.885 218.964 578.73 216.52 578.421 214.155C578.113 210.569 577.652 207.057 577.035 203.468C576.574 200.646 576.113 197.823 575.497 194.997C574.497 190.114 573.341 185.228 571.88 180.419C571.341 178.513 570.803 176.605 570.186 174.773C569.416 172.482 568.569 170.193 567.722 167.827C565.674 162.317 563.395 156.883 560.869 151.647L560.087 150.028C557.519 144.72 554.676 139.56 551.556 134.552C549.939 131.88 548.323 129.283 546.554 126.766C544.781 124.245 543.012 121.728 541.165 119.285C539.315 116.842 537.468 114.476 535.468 112.111C533.926 110.128 532.235 108.219 530.54 106.388C526.983 102.339 523.211 98.4953 519.224 94.8614C517.455 93.1844 515.605 91.5042 513.683 89.9013C512.449 88.7554 511.141 87.6868 509.833 86.6182C506.752 84.1075 503.597 81.6645 500.364 79.2923C498.825 78.1464 497.287 77.0778 495.67 76.0124C494.436 75.1723 493.206 74.4094 491.973 73.5694C487.431 70.6693 482.737 67.8432 477.962 65.3261C475.498 63.9517 472.96 62.6546 470.418 61.5087C468.957 60.7459 467.415 59.983 465.877 59.3714L465.4 59.1751C464.939 58.9594 464.491 58.7309 464.03 58.5314C463.338 58.2288 462.491 57.923 461.874 57.6945C460.027 56.8544 458.102 56.0915 456.177 55.4027C453.561 54.4114 451.097 53.4972 448.711 52.7312C446.939 52.1228 445.247 51.5113 443.553 51.0542C442.628 50.7484 441.784 50.4426 440.859 50.2141C438.934 49.6798 437.009 49.1455 435.084 48.6884C432.006 47.8483 428.851 47.1595 425.692 46.5512C422.537 45.9396 419.46 45.328 416.301 44.871C409.871 43.8699 403.404 43.2069 396.902 42.8882C390.283 42.5052 383.661 42.5052 377.042 42.8882C367.32 43.3421 357.698 44.562 348.174 46.5512C345.866 47.0082 343.555 47.5425 341.399 48.0769C339.708 48.5339 338.013 48.9169 336.397 49.374L335.826 49.5124C334.965 49.7249 334.089 49.8922 333.242 50.1368C332.394 50.3815 331.469 50.6712 330.622 50.9769C330.177 51.0703 329.739 51.1958 329.314 51.36C327.983 51.7494 326.675 52.2065 325.389 52.7312C324.234 53.1142 323.156 53.42 322.078 53.877L318.845 55.0229C316.537 55.7858 314.226 56.6999 312.07 57.6945C311.379 58.0003 310.684 58.2288 309.993 58.5314L309.47 58.776L308.762 59.0657C306.99 59.8317 305.295 60.6686 303.526 61.5087C300.984 62.6546 298.446 63.9517 295.982 65.3261C291.21 67.8432 286.513 70.592 281.972 73.5694C280.741 74.4094 279.508 75.1723 278.278 76.0124C276.736 77.0778 275.197 78.1464 273.658 79.2923C270.425 81.6645 267.27 84.1075 264.189 86.6182C262.881 87.6868 261.573 88.7554 260.339 89.9013C258.417 91.5042 256.567 93.1844 254.798 94.8614C250.812 98.4953 247.04 102.339 243.482 106.388C241.787 108.219 240.171 110.128 238.554 112.111C236.555 114.476 234.707 116.842 232.857 119.285C231.01 121.728 229.163 124.245 227.469 126.766C225.485 129.576 223.696 132.489 221.882 135.511C219.048 140.214 216.386 145.051 213.968 149.982C213.692 150.533 213.413 151.083 213.153 151.647C210.627 156.883 208.349 162.333 206.3 167.827C205.453 170.116 204.606 172.408 203.836 174.773C203.22 176.605 202.681 178.513 202.142 180.419C200.603 185.228 199.526 190.114 198.526 194.997C197.909 197.823 197.448 200.646 196.987 203.468C196.37 207.057 195.909 210.569 195.601 214.155C195.293 216.52 195.137 218.964 194.984 221.329C194.984 222.549 194.832 223.772 194.832 224.992C194.598 227.818 194.523 230.564 194.523 233.403V233.557C194.523 236.303 194.598 239.052 194.754 241.801C194.754 242.637 194.754 243.555 194.832 244.472C194.984 247.289 195.215 250.115 195.523 252.944C195.753 255.612 196.14 258.21 196.523 260.804V261.033C196.679 262.252 196.909 263.476 197.14 264.696C197.601 267.596 198.139 270.422 198.756 273.245C199.217 275.533 199.756 277.825 200.295 280.191C200.834 282.556 201.528 285.073 202.298 287.439C202.759 289.119 203.298 290.8 203.836 292.403C204.534 294.691 205.304 296.906 206.148 299.043C207.225 302.017 208.378 304.843 209.611 307.743C211.994 313.437 214.688 318.983 217.694 324.381C219.003 326.824 220.389 329.19 221.849 331.555C222.138 332.167 222.473 332.75 222.852 333.31C224.083 335.218 225.313 337.127 226.625 338.958C226.975 339.696 227.413 340.384 227.933 341.018C229.471 343.233 231.088 345.444 232.705 347.582C234.474 349.947 236.324 352.316 238.246 354.605C238.535 355.049 238.869 355.455 239.249 355.825C242.326 359.488 245.559 363.077 248.948 366.434C251.987 369.662 255.194 372.717 258.57 375.594C259.729 376.663 260.885 377.68 262.034 378.646C263.563 380.075 265.179 381.398 266.883 382.614C267.361 383.088 267.874 383.522 268.422 383.912C268.578 383.989 268.731 384.14 268.886 384.217C278.112 391.35 287.915 397.591 298.297 402.938C308.678 408.284 319.465 412.649 330.654 416.028C332.226 416.501 333.832 416.736 335.472 416.73H438.317C439.959 416.736 441.566 416.501 443.137 416.028C454.327 412.649 465.114 408.284 475.495 402.938C485.876 397.591 495.68 391.35 504.905 384.217C505.061 384.14 505.214 383.989 505.37 383.912C505.831 383.532 506.292 383.226 506.678 382.843C508.986 381.089 511.141 379.257 513.297 377.349C513.634 377.155 513.917 376.901 514.144 376.586C516.299 374.831 518.299 372.923 520.302 371.014C523.766 367.808 526.999 364.451 530.079 361.017C532.235 358.651 534.39 356.208 536.39 353.688C538.091 351.711 539.682 349.651 541.165 347.508C542.782 345.444 544.32 343.31 545.859 341.096C546.32 340.407 546.784 339.721 547.167 339.036C548.398 337.368 549.524 335.637 550.556 333.844C551.348 332.717 552.066 331.549 552.712 330.332C553.789 328.578 554.789 326.824 555.789 324.992C559.087 319.141 562.012 313.109 564.567 306.903C565.414 304.888 566.212 302.857 567.014 300.797L568.8 295.988C569.676 293.423 570.741 290.433 571.572 287.439C572.263 285.073 572.958 282.634 573.572 280.191C574.188 277.748 574.727 275.61 575.188 273.245C575.805 270.422 576.344 267.596 576.805 264.696C577.035 263.476 577.269 262.252 577.421 261.033V260.804C577.808 258.21 578.191 255.612 578.421 252.944C578.652 250.272 578.96 247.295 579.116 244.472C579.116 243.555 579.116 242.637 579.116 241.801C579.269 239.052 579.346 236.303 579.346 233.557V233.403C579.424 230.564 579.424 227.818 579.191 224.992ZM533.235 233.403C533.235 236.152 533.157 238.974 533.004 241.646C532.848 243.938 532.696 246.226 532.465 248.515L531.771 253.781C531.696 254.547 531.54 255.31 531.466 256.072C531.079 258.284 530.693 260.421 530.232 262.558C529.771 264.696 529.31 266.833 528.693 268.893C528.602 269.437 528.473 269.971 528.307 270.496C527.768 272.482 527.229 274.464 526.538 276.45C525.843 278.433 525.152 280.876 524.304 283.091C523.457 285.302 522.61 287.668 521.61 289.959C520.302 293.165 518.763 296.294 517.147 299.423C515.53 302.551 513.836 305.529 511.989 308.583C510.823 310.64 509.538 312.626 508.139 314.535C506.908 316.443 505.522 318.352 504.058 320.184C502.73 322.099 501.296 323.93 499.747 325.678C498.28 327.509 496.741 329.267 495.131 330.944C493.518 332.624 491.901 334.301 490.281 335.981C486.795 339.49 483.124 342.795 479.27 345.905C468.5 354.598 456.723 361.641 443.939 367.029C441.965 367.844 439.911 368.252 437.778 368.252H424.248C423.294 368.256 422.349 368.172 421.411 368.001C420.473 367.831 419.557 367.576 418.668 367.238C417.778 366.9 416.925 366.485 416.113 365.99C415.301 365.494 414.542 364.927 413.837 364.293C413.13 363.659 412.49 362.964 411.912 362.211C411.338 361.458 410.835 360.659 410.409 359.813C409.981 358.966 409.637 358.091 409.377 357.18C409.114 356.272 408.939 355.348 408.851 354.405L401.814 280.113C401.768 279.64 401.638 279.193 401.424 278.768C401.21 278.343 400.924 277.973 400.57 277.654C400.217 277.336 399.814 277.091 399.369 276.92C398.921 276.75 398.46 276.663 397.98 276.663H376.042C375.562 276.663 375.101 276.75 374.653 276.92C374.208 277.091 373.806 277.336 373.452 277.654C373.098 277.973 372.812 278.343 372.598 278.768C372.384 279.193 372.254 279.64 372.209 280.113L365.187 354.405C365.099 355.348 364.924 356.272 364.661 357.18C364.398 358.091 364.054 358.966 363.629 359.813C363.204 360.659 362.701 361.458 362.126 362.211C361.548 362.964 360.909 363.659 360.201 364.293C359.497 364.927 358.737 365.494 357.925 365.99C357.111 366.485 356.26 366.9 355.371 367.238C354.481 367.576 353.566 367.831 352.628 368.001C351.69 368.172 350.745 368.256 349.791 368.252H336.319C334.186 368.249 332.131 367.844 330.161 367.029C317.348 361.641 305.545 354.595 294.752 345.888C290.899 342.779 287.227 339.474 283.741 335.965C282.05 334.359 280.433 332.679 278.891 330.928C277.352 329.18 275.814 327.423 274.275 325.662C272.727 323.914 271.292 322.083 269.964 320.167C268.5 318.336 267.114 316.427 265.884 314.519C264.485 312.61 263.199 310.624 262.034 308.567C260.187 305.512 258.492 302.461 256.876 299.406C255.259 296.355 253.798 293.149 252.412 289.943C251.412 287.655 250.565 285.363 249.718 283.075C248.871 280.786 248.179 278.649 247.484 276.434C246.793 274.22 246.254 272.466 245.715 270.483C245.55 269.955 245.42 269.421 245.329 268.88C244.79 266.817 244.251 264.679 243.868 262.545C243.482 260.408 243.021 258.271 242.635 256.056C242.635 255.294 242.404 254.531 242.326 253.768L241.635 248.502C241.404 246.21 241.249 243.922 241.096 241.63C240.94 238.962 240.865 236.136 240.865 233.39V233.158C240.865 230.107 240.94 227.052 241.174 224.152C241.326 221.712 241.557 219.269 241.865 216.904C241.93 215.539 242.112 214.19 242.404 212.858C242.482 211.828 242.638 210.81 242.865 209.806C243.096 207.897 243.482 205.989 243.868 204.157C244.998 198.331 246.511 192.608 248.41 186.985C249.023 185.154 249.718 183.322 250.409 181.565C250.643 180.712 250.977 179.898 251.412 179.122C251.951 177.751 252.49 176.376 253.104 175.002C253.72 173.627 254.412 172.102 255.184 170.65C257.054 166.572 259.184 162.629 261.573 158.821C261.67 158.577 261.8 158.348 261.956 158.136C263.111 156.227 264.342 154.318 265.728 152.409C266.968 150.443 268.328 148.56 269.808 146.764C271.087 144.81 272.525 142.978 274.119 141.266C277.031 137.61 280.186 134.175 283.588 130.963C285.169 129.244 286.864 127.641 288.669 126.154C290.331 124.503 292.1 122.977 293.979 121.577C297.388 118.683 300.981 116.038 304.757 113.64C304.932 113.385 305.162 113.208 305.451 113.105C306.01 112.655 306.6 112.246 307.22 111.882L308.376 111.197C308.743 110.939 309.129 110.711 309.532 110.508C312.018 108.853 314.586 107.328 317.228 105.931C319.54 104.634 321.848 103.41 324.234 102.342C325.542 101.656 326.85 101.122 328.161 100.51C328.7 100.282 329.239 100.053 329.853 99.8247C331.086 99.2904 332.394 98.7561 333.78 98.2958C334.78 97.8387 335.78 97.5329 336.858 97.1531C337.936 96.7701 338.939 96.3903 339.938 96.0845L341.477 95.5502C342.104 95.2991 342.746 95.0964 343.402 94.9386C344.249 94.6329 345.097 94.3271 345.941 94.0985C349.713 93.0299 353.563 92.1158 357.413 91.3529C360.724 90.6641 364.109 90.0558 367.495 89.6728C371.423 89.0612 375.348 88.7554 379.35 88.5269C384.382 88.2211 389.41 88.2211 394.438 88.5269C399.369 88.7683 404.271 89.2769 409.143 90.0558C411.607 90.3584 413.993 90.8186 416.379 91.3529C417.918 91.6555 419.46 91.9613 420.998 92.3443L426.54 93.7187C427.004 93.87 427.387 93.9473 427.848 94.0985C428.695 94.4043 429.542 94.6329 430.468 94.9386L433.545 95.93C433.931 96.0845 434.314 96.1585 434.701 96.313C436.239 96.8474 437.934 97.4589 439.472 98.0673C441.011 98.6788 442.861 99.3644 444.478 100.053C444.783 100.205 445.092 100.282 445.4 100.433C447.023 101.125 448.64 101.888 450.25 102.725C452.418 103.671 454.522 104.74 456.563 105.931C459.232 107.324 461.826 108.85 464.338 110.508C464.741 110.711 465.124 110.939 465.494 111.197L466.646 111.882C467.269 112.246 467.857 112.655 468.418 113.105C468.707 113.208 468.938 113.385 469.11 113.64C472.885 116.038 476.479 118.683 479.887 121.577C481.767 122.977 483.539 124.503 485.198 126.154C487.006 127.641 488.701 129.244 490.281 130.963C493.68 134.175 496.839 137.61 499.747 141.266C501.344 142.978 502.779 144.81 504.058 146.764C505.538 148.56 506.899 150.443 508.139 152.409C509.525 154.318 510.755 156.227 511.911 158.136C512.07 158.348 512.196 158.577 512.297 158.821C514.683 162.629 516.812 166.572 518.685 170.65C519.455 172.095 520.149 173.547 520.763 175.002C521.38 176.376 521.919 177.751 522.457 179.122C522.889 179.898 523.224 180.712 523.457 181.565C524.152 183.322 524.843 185.154 525.46 186.985C527.414 192.631 528.979 198.38 530.154 204.235C530.54 206.066 530.927 207.971 531.157 209.88C531.384 210.888 531.54 211.905 531.618 212.935C531.91 214.267 532.092 215.616 532.157 216.978C532.465 219.347 532.696 221.786 532.848 224.229C533.082 227.284 533.157 230.184 533.157 233.235L533.235 233.403Z" fill="#556069"/>
<path d="M387.094 225.452L386.849 225.221L387.094 225.452Z" fill="#556069"/>
<path d="M427.773 243.31V263.382C427.773 267.277 421.615 269.26 417.918 266.514L414.454 264.451C413.62 263.875 412.958 263.144 412.471 262.256C411.984 261.371 411.721 260.424 411.682 259.414V251.096C411.682 247.691 407.972 244.073 404.911 244.073C404.725 244.076 404.573 244.147 404.45 244.282C404.326 244.421 404.274 244.578 404.294 244.762V249.873C404.294 250.25 404.255 250.623 404.183 250.99C404.109 251.36 403.998 251.718 403.852 252.065C403.709 252.413 403.531 252.741 403.32 253.053C403.109 253.366 402.869 253.655 402.602 253.922C402.333 254.186 402.041 254.425 401.726 254.634C401.411 254.843 401.08 255.02 400.729 255.162C400.379 255.306 400.019 255.416 399.645 255.49C399.275 255.561 398.899 255.599 398.519 255.599L401.382 260.576C401.379 260.775 401.307 260.946 401.161 261.087C401.018 261.229 400.846 261.303 400.645 261.306H373.241C373.04 261.303 372.868 261.229 372.728 261.087C372.585 260.946 372.517 260.775 372.517 260.576L375.779 255.599H375.458C375.078 255.599 374.702 255.561 374.332 255.49C373.958 255.416 373.598 255.306 373.247 255.162C372.897 255.02 372.562 254.843 372.248 254.634C371.933 254.425 371.641 254.186 371.374 253.922C371.105 253.655 370.868 253.366 370.657 253.053C370.446 252.741 370.267 252.413 370.121 252.065C369.979 251.718 369.868 251.36 369.793 250.99C369.719 250.623 369.683 250.25 369.683 249.873V244.762C369.699 244.578 369.647 244.421 369.527 244.282C369.404 244.147 369.251 244.076 369.066 244.073C365.989 244.073 362.292 247.691 362.292 251.096V259.352C362.256 260.363 361.993 261.309 361.506 262.195C361.019 263.083 360.357 263.814 359.523 264.39L356.059 266.453C352.362 269.199 346.204 267.216 346.204 263.321V243.31C346.23 242.689 346.389 242.103 346.687 241.553C346.986 241.002 347.388 240.545 347.898 240.182L368.807 224.323C369.667 223.666 370.358 222.865 370.878 221.918C371.4 220.972 371.702 219.961 371.793 218.886L374.533 185.991C375.013 182.193 376.296 178.681 378.383 175.459C380.382 172.253 382.999 169.813 386.08 169.813H387.927C391.007 169.813 393.624 172.253 395.626 175.459C397.711 178.681 398.993 182.193 399.473 185.991L402.216 218.886C402.304 219.961 402.609 220.972 403.128 221.918C403.648 222.865 404.339 223.666 405.203 224.323L426.108 240.182C426.614 240.548 427.01 241.009 427.303 241.556C427.595 242.106 427.751 242.689 427.773 243.31Z" fill="#556069"/>
<path d="M168.956 358.886C169.917 356.868 170.998 354.888 172.151 352.983C170.956 354.882 169.891 356.848 168.956 358.886ZM178.429 344.224C179.925 342.435 181.506 340.719 183.162 339.084C181.461 340.687 179.883 342.403 178.429 344.224ZM188.362 334.401C190.092 332.994 191.903 331.662 193.751 330.442C191.861 331.639 190.066 332.959 188.362 334.401ZM194.984 329.566C194.672 329.746 194.377 329.949 194.098 330.175C194.598 329.833 195.059 329.528 195.559 329.225L194.984 329.566ZM202.415 300.626C202.953 300.398 203.492 300.247 204.07 300.057C204.713 299.793 205.365 299.564 206.034 299.371C204.839 299.751 203.606 300.134 202.415 300.626ZM205.492 323.93C204.839 324.236 204.184 324.503 203.531 324.844C204.453 324.426 205.378 324.007 206.339 323.589C206.034 323.702 205.761 323.818 205.492 323.94V323.93ZM214.386 320.731C213.964 320.847 213.539 320.998 213.117 321.152C213.886 320.885 214.773 320.657 215.62 320.39C215.195 320.541 214.773 320.618 214.386 320.731ZM231.098 317.953C232.367 317.914 233.6 317.876 234.87 317.876C236.139 317.876 237.372 317.914 238.642 317.953C236.126 317.802 233.613 317.802 231.098 317.953ZM238.642 317.953C241.106 318.104 243.569 318.333 245.998 318.716C243.56 318.326 241.109 318.072 238.642 317.953ZM255.392 320.731C255.158 320.657 254.967 320.618 254.736 320.541C254.58 320.534 254.425 320.509 254.275 320.467C255.084 320.695 255.892 320.885 256.7 321.152C256.239 320.998 255.814 320.892 255.392 320.731ZM274.755 329.566L274.181 329.225C274.681 329.528 275.142 329.833 275.642 330.175C275.362 329.949 275.067 329.746 274.755 329.566ZM275.989 330.442C277.836 331.662 279.647 332.994 281.378 334.401C279.673 332.959 277.878 331.639 275.989 330.442ZM286.578 339.084C288.23 340.719 289.808 342.435 291.311 344.224C289.856 342.403 288.279 340.687 286.578 339.084ZM297.589 352.983C298.741 354.888 299.822 356.868 300.783 358.886C299.848 356.848 298.78 354.882 297.589 352.983Z" fill="white"/>
<path d="M214.935 491.398H254.805C255.265 491.398 255.723 491.444 256.174 491.534C256.626 491.624 257.064 491.753 257.489 491.93C257.914 492.103 258.32 492.316 258.703 492.57C259.086 492.821 259.44 493.111 259.765 493.433C260.093 493.755 260.381 494.105 260.638 494.482C260.894 494.862 261.109 495.261 261.287 495.683C261.462 496.104 261.595 496.539 261.686 496.983C261.774 497.43 261.819 497.881 261.819 498.338V507.309C261.819 507.763 261.774 508.216 261.686 508.661C261.595 509.108 261.462 509.543 261.287 509.964C261.109 510.383 260.894 510.785 260.638 511.162C260.381 511.541 260.093 511.892 259.765 512.214C259.44 512.536 259.086 512.823 258.703 513.077C258.32 513.331 257.914 513.544 257.489 513.717C257.064 513.891 256.626 514.023 256.174 514.113C255.723 514.2 255.265 514.245 254.805 514.245H214.935C214.474 514.245 214.016 514.2 213.565 514.113C213.114 514.023 212.676 513.891 212.251 513.717C211.825 513.544 211.42 513.331 211.036 513.077C210.653 512.823 210.3 512.536 209.975 512.214C209.647 511.892 209.358 511.541 209.102 511.162C208.845 510.785 208.628 510.383 208.453 509.964C208.277 509.543 208.144 509.108 208.053 508.661C207.966 508.216 207.92 507.763 207.92 507.309V498.338C207.92 497.881 207.966 497.43 208.053 496.983C208.144 496.539 208.277 496.104 208.453 495.683C208.628 495.261 208.845 494.862 209.102 494.482C209.358 494.105 209.647 493.755 209.975 493.433C210.3 493.111 210.653 492.821 211.036 492.57C211.42 492.316 211.825 492.103 212.251 491.93C212.676 491.753 213.114 491.624 213.565 491.534C214.016 491.444 214.474 491.398 214.935 491.398Z" fill="white"/>
<path d="M214.935 524.046H254.805C255.265 524.046 255.723 524.091 256.174 524.181C256.626 524.268 257.064 524.4 257.489 524.574C257.914 524.748 258.32 524.963 258.703 525.215C259.086 525.469 259.44 525.755 259.765 526.08C260.093 526.402 260.381 526.75 260.638 527.13C260.894 527.51 261.109 527.909 261.287 528.33C261.462 528.752 261.595 529.183 261.686 529.631C261.774 530.078 261.819 530.529 261.819 530.986V539.956C261.819 540.41 261.774 540.861 261.686 541.308C261.595 541.756 261.462 542.19 261.287 542.612C261.109 543.03 260.894 543.429 260.638 543.809C260.381 544.189 260.093 544.54 259.765 544.862C259.44 545.184 259.086 545.47 258.703 545.724C258.32 545.975 257.914 546.191 257.489 546.365C257.064 546.539 256.626 546.671 256.174 546.761C255.723 546.848 255.265 546.893 254.805 546.893H214.935C214.474 546.893 214.016 546.848 213.565 546.761C213.114 546.671 212.676 546.539 212.251 546.365C211.825 546.191 211.42 545.975 211.036 545.724C210.653 545.47 210.3 545.184 209.975 544.862C209.647 544.54 209.358 544.189 209.102 543.809C208.845 543.429 208.628 543.03 208.453 542.612C208.277 542.19 208.144 541.756 208.053 541.308C207.966 540.861 207.92 540.41 207.92 539.956V530.986C207.92 530.529 207.966 530.078 208.053 529.631C208.144 529.183 208.277 528.752 208.453 528.33C208.628 527.909 208.845 527.51 209.102 527.13C209.358 526.75 209.647 526.402 209.975 526.08C210.3 525.755 210.653 525.469 211.036 525.218C211.42 524.963 211.825 524.748 212.251 524.574C212.676 524.4 213.114 524.268 213.565 524.181C214.016 524.091 214.474 524.046 214.935 524.046Z" fill="white"/>
<path d="M331.008 385.997C331.008 385.386 331.008 384.777 330.93 384.169C330.852 382.988 330.775 381.768 330.622 380.59C330.466 378.8 330.236 377.049 329.927 375.26C329.697 373.85 329.466 372.44 329.158 371.033C328.658 368.594 328.08 366.157 327.35 363.759C327.08 362.806 326.811 361.857 326.503 360.943C326.116 359.8 325.694 358.657 325.269 357.476C324.246 354.727 323.107 352.017 321.844 349.403L321.452 348.595C320.169 345.946 318.744 343.375 317.186 340.874C316.378 339.541 315.566 338.247 314.683 336.992C313.797 335.733 312.911 334.478 311.986 333.258C311.064 332.041 310.139 330.86 309.139 329.679C308.369 328.691 307.522 327.738 306.675 326.824C304.896 324.806 303.01 322.887 301.014 321.075C300.127 320.238 299.206 319.398 298.241 318.6C297.628 318.03 296.972 317.496 296.316 316.962C294.778 315.709 293.2 314.49 291.58 313.308C290.811 312.735 290.042 312.204 289.233 311.67C288.617 311.251 288 310.872 287.386 310.45C285.114 309.005 282.764 307.595 280.378 306.34C279.147 305.654 277.875 305.007 276.606 304.434C275.872 304.054 275.103 303.675 274.333 303.369L274.093 303.269C273.863 303.163 273.639 303.05 273.408 302.95C273.064 302.799 272.639 302.645 272.331 302.532C271.409 302.113 270.445 301.73 269.484 301.389C268.172 300.894 266.942 300.436 265.747 300.057C264.861 299.751 264.014 299.448 263.167 299.22C262.706 299.065 262.284 298.914 261.819 298.801C260.859 298.534 259.894 298.267 258.934 298.039C257.392 297.62 255.814 297.276 254.236 296.973C252.659 296.667 251.117 296.365 249.539 296.136C246.322 295.634 243.089 295.306 239.836 295.145C236.525 294.955 233.214 294.955 229.903 295.145C225.04 295.37 220.23 295.982 215.464 296.973C214.312 297.202 213.156 297.469 212.078 297.733C211.231 297.961 210.384 298.151 209.576 298.38L209.29 298.451C208.858 298.557 208.42 298.64 207.995 298.763C207.573 298.885 207.112 299.03 206.687 299.181C206.463 299.226 206.245 299.291 206.034 299.371C205.365 299.564 204.713 299.793 204.07 300.057C203.492 300.247 202.953 300.398 202.415 300.626L200.795 301.199C199.642 301.579 198.487 302.036 197.409 302.532C197.062 302.683 196.714 302.799 196.37 302.95L196.107 303.073L195.753 303.217C194.867 303.597 194.02 304.016 193.134 304.434C191.865 305.007 190.592 305.654 189.362 306.34C186.976 307.595 184.626 308.966 182.353 310.45C181.74 310.872 181.123 311.251 180.506 311.67C179.737 312.204 178.968 312.735 178.195 313.308C176.578 314.49 175.001 315.709 173.462 316.962C172.806 317.496 172.151 318.03 171.537 318.6C170.573 319.398 169.648 320.238 168.765 321.075C166.768 322.887 164.882 324.806 163.104 326.824C162.256 327.738 161.448 328.691 160.64 329.679C159.64 330.86 158.715 332.041 157.79 333.258C156.868 334.478 155.942 335.733 155.095 336.992C154.102 338.392 153.209 339.847 152.3 341.353C150.885 343.7 149.551 346.114 148.343 348.573C148.204 348.85 148.064 349.123 147.934 349.403C146.671 352.017 145.532 354.734 144.509 357.476C144.084 358.619 143.662 359.761 143.276 360.943C142.968 361.857 142.698 362.806 142.429 363.759C141.659 366.157 141.12 368.594 140.621 371.033C140.312 372.44 140.082 373.85 139.848 375.26C139.543 377.049 139.309 378.8 139.157 380.59C139.001 381.768 138.926 382.988 138.848 384.169C138.848 384.777 138.77 385.386 138.77 385.997C138.657 387.404 138.618 388.775 138.618 390.191V390.269C138.618 391.64 138.657 393.011 138.731 394.379C138.731 394.801 138.731 395.258 138.77 395.715C138.848 397.118 138.965 398.528 139.118 399.941C139.234 401.274 139.426 402.567 139.617 403.861V403.977C139.695 404.586 139.812 405.194 139.926 405.802C140.156 407.251 140.426 408.661 140.734 410.067C140.965 411.21 141.234 412.352 141.504 413.534C141.773 414.715 142.12 415.97 142.507 417.152C142.737 417.988 143.006 418.825 143.276 419.627C143.627 420.766 144.01 421.87 144.432 422.939C144.97 424.423 145.548 425.833 146.165 427.278C147.356 430.12 148.704 432.888 150.206 435.579C150.859 436.799 151.554 437.977 152.284 439.158C152.43 439.464 152.596 439.757 152.787 440.034C153.401 440.986 154.017 441.939 154.673 442.853C154.849 443.22 155.066 443.565 155.326 443.88C156.098 444.984 156.907 446.088 157.715 447.154C158.598 448.335 159.523 449.516 160.487 450.659C160.63 450.881 160.795 451.084 160.987 451.267C162.526 453.095 164.142 454.885 165.837 456.559C167.356 458.171 168.96 459.694 170.651 461.129C171.229 461.664 171.806 462.169 172.381 462.652C173.147 463.366 173.955 464.026 174.809 464.631C175.046 464.87 175.303 465.085 175.579 465.278C175.656 465.317 175.731 465.394 175.809 465.433C180.422 468.99 185.327 472.102 190.517 474.77C195.711 477.439 201.106 479.615 206.703 481.301C207.488 481.539 208.29 481.655 209.111 481.652H260.55C261.371 481.655 262.173 481.539 262.959 481.301C268.558 479.615 273.95 477.439 279.144 474.77C284.335 472.102 289.24 468.99 293.853 465.433C293.931 465.394 294.008 465.317 294.083 465.278C294.317 465.088 294.547 464.937 294.739 464.747C295.894 463.872 296.972 462.958 298.05 462.005C298.219 461.908 298.362 461.783 298.472 461.625C299.553 460.75 300.553 459.797 301.553 458.844C303.286 457.244 304.903 455.571 306.445 453.855C307.522 452.677 308.6 451.457 309.6 450.202C310.45 449.214 311.246 448.187 311.986 447.118C312.797 446.088 313.567 445.023 314.336 443.919C314.566 443.574 314.797 443.233 314.992 442.889C315.605 442.058 316.17 441.196 316.683 440.301C317.079 439.741 317.439 439.155 317.764 438.55C318.303 437.674 318.803 436.799 319.303 435.885C320.952 432.965 322.416 429.956 323.691 426.859C324.117 425.855 324.516 424.841 324.915 423.814L325.808 421.416C326.249 420.135 326.778 418.642 327.194 417.152C327.541 415.97 327.889 414.75 328.197 413.534C328.505 412.314 328.775 411.248 329.005 410.067C329.314 408.661 329.583 407.251 329.814 405.802C329.927 405.194 330.044 404.586 330.122 403.977V403.861C330.314 402.567 330.505 401.274 330.622 399.941C330.739 398.608 330.891 397.121 330.969 395.715C330.969 395.258 330.969 394.801 330.969 394.379C331.044 393.011 331.083 391.64 331.083 390.269V390.191C331.122 388.775 331.122 387.404 331.008 385.997ZM308.022 390.191C308.022 391.563 307.983 392.972 307.905 394.305C307.831 395.448 307.753 396.59 307.636 397.73L307.288 400.359C307.253 400.739 307.175 401.119 307.136 401.502C306.944 402.606 306.75 403.671 306.519 404.737C306.289 405.802 306.058 406.871 305.75 407.898C305.704 408.168 305.639 408.435 305.558 408.696C305.289 409.687 305.019 410.679 304.672 411.667C304.325 412.658 303.977 413.875 303.555 414.979C303.133 416.083 302.708 417.264 302.208 418.407C301.553 420.007 300.783 421.568 299.975 423.129C299.167 424.69 298.319 426.174 297.394 427.696C296.813 428.726 296.17 429.714 295.469 430.667C294.856 431.62 294.161 432.573 293.431 433.487C292.765 434.443 292.048 435.354 291.275 436.226C290.538 437.14 289.769 438.016 288.964 438.856C288.159 439.693 287.351 440.529 286.539 441.366C284.796 443.117 282.958 444.765 281.034 446.317C275.645 450.656 269.753 454.167 263.361 456.858C262.375 457.264 261.346 457.466 260.281 457.466H253.513C253.035 457.47 252.561 457.428 252.094 457.341C251.623 457.257 251.166 457.132 250.721 456.961C250.276 456.794 249.851 456.585 249.445 456.337C249.039 456.089 248.659 455.809 248.306 455.49C247.952 455.175 247.63 454.827 247.345 454.454C247.056 454.077 246.806 453.678 246.592 453.256C246.377 452.835 246.205 452.397 246.076 451.943C245.942 451.489 245.855 451.029 245.813 450.559L242.294 413.495C242.271 413.26 242.206 413.035 242.096 412.826C241.989 412.613 241.849 412.426 241.67 412.269C241.492 412.108 241.294 411.986 241.07 411.902C240.846 411.815 240.615 411.773 240.375 411.773H229.403C229.163 411.773 228.933 411.815 228.709 411.902C228.485 411.986 228.283 412.108 228.108 412.269C227.929 412.426 227.787 412.613 227.68 412.826C227.572 413.035 227.507 413.26 227.485 413.495L223.972 450.559C223.93 451.029 223.843 451.489 223.709 451.943C223.58 452.397 223.408 452.835 223.193 453.256C222.982 453.678 222.729 454.077 222.443 454.454C222.155 454.827 221.833 455.175 221.479 455.49C221.125 455.809 220.749 456.089 220.34 456.337C219.934 456.585 219.509 456.794 219.064 456.961C218.619 457.132 218.162 457.257 217.691 457.341C217.224 457.428 216.75 457.47 216.272 457.466H209.537C208.469 457.466 207.443 457.264 206.456 456.858C200.048 454.17 194.147 450.652 188.745 446.31C186.82 444.759 184.983 443.108 183.239 441.36C182.392 440.558 181.584 439.718 180.815 438.846C180.045 437.974 179.273 437.098 178.503 436.219C177.731 435.347 177.013 434.433 176.348 433.477C175.617 432.563 174.923 431.613 174.309 430.661C173.608 429.708 172.965 428.717 172.381 427.69C171.459 426.167 170.612 424.645 169.804 423.122C168.995 421.597 168.262 419.997 167.57 418.4C167.07 417.258 166.645 416.115 166.223 414.973C165.798 413.83 165.454 412.764 165.106 411.66C164.759 410.556 164.49 409.681 164.22 408.69C164.139 408.429 164.074 408.162 164.029 407.891C163.759 406.861 163.49 405.796 163.295 404.73C163.104 403.665 162.873 402.596 162.682 401.492C162.682 401.113 162.565 400.733 162.526 400.35L162.178 397.723C162.065 396.581 161.987 395.438 161.909 394.295C161.834 392.963 161.795 391.556 161.795 390.185V390.069C161.795 388.547 161.834 387.024 161.948 385.576C162.026 384.359 162.143 383.139 162.295 381.961C162.328 381.279 162.419 380.606 162.565 379.943C162.604 379.428 162.682 378.919 162.795 378.417C162.912 377.468 163.104 376.515 163.295 375.601C163.86 372.694 164.619 369.839 165.567 367.032C165.876 366.118 166.223 365.207 166.57 364.329C166.687 363.904 166.853 363.498 167.07 363.112C167.34 362.426 167.609 361.741 167.918 361.055C168.226 360.37 168.57 359.61 168.956 358.886C169.891 356.848 170.956 354.882 172.151 352.983C172.199 352.86 172.264 352.748 172.345 352.641C172.923 351.689 173.537 350.736 174.231 349.786C174.851 348.805 175.53 347.865 176.27 346.967C176.913 345.991 177.63 345.077 178.429 344.224C179.883 342.403 181.461 340.687 183.162 339.084C183.954 338.228 184.801 337.426 185.703 336.686C186.534 335.862 187.421 335.102 188.362 334.401C190.066 332.959 191.861 331.639 193.751 330.442C193.838 330.316 193.952 330.226 194.098 330.175C194.377 329.949 194.672 329.746 194.984 329.566L195.559 329.225C195.744 329.096 195.935 328.98 196.137 328.881C197.383 328.053 198.665 327.294 199.986 326.595C201.142 325.948 202.298 325.34 203.492 324.806C204.145 324.464 204.801 324.197 205.456 323.892C205.726 323.779 205.995 323.663 206.303 323.55C206.917 323.283 207.573 323.016 208.264 322.787C208.767 322.559 209.267 322.408 209.806 322.218C210.345 322.028 210.845 321.838 211.345 321.683L212.114 321.416C212.429 321.294 212.75 321.191 213.078 321.114C213.5 320.959 213.925 320.808 214.347 320.695C216.237 320.161 218.162 319.704 220.087 319.324C221.742 318.98 223.434 318.677 225.128 318.487C227.092 318.181 229.056 318.03 231.059 317.914C233.575 317.763 236.09 317.763 238.603 317.914C241.07 318.033 243.521 318.288 245.959 318.677C247.189 318.828 248.384 319.057 249.578 319.324C250.347 319.475 251.117 319.627 251.886 319.82L254.658 320.505C254.889 320.579 255.084 320.618 255.314 320.695C255.736 320.847 256.161 320.959 256.622 321.114L258.164 321.609C258.356 321.683 258.547 321.722 258.739 321.799C259.511 322.066 260.359 322.369 261.128 322.675C261.897 322.977 262.823 323.322 263.631 323.663C263.783 323.74 263.939 323.779 264.092 323.856C264.903 324.201 265.712 324.58 266.517 324.996C267.601 325.469 268.653 326.003 269.675 326.595C271.009 327.294 272.308 328.053 273.564 328.881C273.765 328.98 273.957 329.096 274.142 329.225L274.72 329.566C275.028 329.746 275.324 329.949 275.603 330.175C275.749 330.226 275.866 330.316 275.95 330.442C277.839 331.639 279.634 332.959 281.342 334.401C282.28 335.102 283.166 335.862 283.997 336.686C284.9 337.426 285.747 338.228 286.539 339.084C288.24 340.687 289.818 342.403 291.275 344.224C292.07 345.077 292.791 345.991 293.431 346.967C294.171 347.865 294.849 348.805 295.469 349.786C296.164 350.736 296.781 351.689 297.355 352.641C297.436 352.748 297.501 352.86 297.55 352.983C298.745 354.882 299.809 356.848 300.744 358.886C301.131 359.607 301.478 360.331 301.783 361.055C302.091 361.741 302.361 362.426 302.63 363.112C302.848 363.498 303.013 363.904 303.133 364.329C303.477 365.207 303.825 366.118 304.133 367.032C305.11 369.849 305.893 372.72 306.48 375.639C306.675 376.554 306.867 377.506 306.983 378.456C307.097 378.958 307.175 379.466 307.214 379.978C307.36 380.645 307.451 381.317 307.483 381.996C307.636 383.178 307.753 384.398 307.831 385.614C307.944 387.137 307.983 388.585 307.983 390.108L308.022 390.191Z" fill="white"/>
<path d="M234.931 386.227L234.808 386.11L234.931 386.227Z" fill="white"/>
<path d="M255.275 395.135V405.149C255.275 407.09 252.194 408.081 250.347 406.71L248.614 405.683C248.195 405.393 247.867 405.03 247.621 404.586C247.377 404.145 247.247 403.671 247.228 403.169V399.017C247.228 397.321 245.374 395.515 243.839 395.515C243.748 395.518 243.673 395.551 243.612 395.621C243.55 395.689 243.524 395.766 243.534 395.856V398.409C243.534 398.789 243.459 399.152 243.313 399.503C243.167 399.851 242.956 400.16 242.686 400.427C242.417 400.697 242.102 400.903 241.748 401.048C241.394 401.193 241.028 401.264 240.645 401.264L242.076 403.749C242.076 403.848 242.037 403.932 241.966 404.003C241.894 404.074 241.81 404.112 241.706 404.112H228.001C227.9 404.109 227.816 404.074 227.744 404.003C227.673 403.932 227.64 403.845 227.64 403.749L229.27 401.264H229.111C228.728 401.264 228.358 401.193 228.004 401.048C227.65 400.903 227.339 400.697 227.069 400.427C226.796 400.16 226.589 399.851 226.443 399.503C226.297 399.152 226.222 398.789 226.222 398.409V395.856C226.232 395.766 226.206 395.689 226.144 395.621C226.082 395.551 226.008 395.518 225.913 395.515C224.375 395.515 222.528 397.321 222.528 399.017V403.137C222.508 403.642 222.375 404.112 222.132 404.557C221.888 404.998 221.557 405.365 221.142 405.651L219.408 406.678C217.561 408.049 214.48 407.061 214.48 405.117V395.135C214.506 394.479 214.789 393.957 215.328 393.574L225.784 385.659C226.215 385.334 226.559 384.935 226.819 384.462C227.082 383.989 227.231 383.487 227.277 382.949L228.647 366.54C228.887 364.644 229.53 362.893 230.572 361.284C231.575 359.684 232.883 358.467 234.422 358.467H235.347C236.886 358.467 238.197 359.684 239.197 361.284C240.239 362.893 240.882 364.644 241.122 366.54L242.492 382.949C242.537 383.487 242.69 383.989 242.949 384.462C243.209 384.935 243.556 385.334 243.988 385.659L254.444 393.574C254.976 393.961 255.252 394.482 255.275 395.135Z" fill="white"/>
</svg>
