<svg width="201" height="170" viewBox="0 0 201 170" fill="none" xmlns="http://www.w3.org/2000/svg">
<path d="M89.1571 135.243C88.281 135.243 87.4459 134.749 87.0651 133.922C86.5499 132.797 87.0715 131.475 88.2274 130.974L99.0024 126.308C105.846 123.295 112.404 119.846 118.492 116.071C176.916 79.8424 183.092 18.7469 183.74 6.19968C169.564 6.9027 95.0049 14.172 60.3762 88.7055L55.5835 99.203C55.0691 100.335 53.7124 100.823 52.5555 100.335C51.406 99.8272 50.8853 98.5132 51.3996 97.387L56.1987 86.8833C95.4129 2.47739 184.248 1.66989 186.093 1.66989C186.107 1.66989 186.113 1.66989 186.12 1.66989L188.372 1.68317L188.393 3.88255C188.399 4.61833 188.159 78.1433 120.952 119.832C114.683 123.725 107.925 127.271 100.881 130.369L90.0858 135.048C89.785 135.178 89.4706 135.243 89.1571 135.243Z" fill="#87929A"/>
<path d="M76.5909 164.925V158.092C76.5909 145.382 71.511 133.44 62.2873 124.453C53.0635 115.472 40.7918 110.519 27.7386 110.519H20.7203L21.2756 107.852C21.3692 107.409 30.9201 63.9111 70.5623 63.9111C71.8318 63.9111 72.8551 64.9063 72.8551 66.1362C72.8551 67.3598 71.8318 68.3621 70.5623 68.3621C39.7158 68.3621 29.0554 96.9832 26.4482 106.068H27.7386C42.015 106.068 55.4362 111.477 65.5224 121.303C75.6149 131.124 81.1692 144.191 81.1692 158.092V159.348C90.4938 156.81 119.889 146.423 119.889 116.39C119.889 115.166 120.919 114.171 122.182 114.171C123.445 114.171 124.468 115.166 124.468 116.39C124.468 154.994 79.7861 164.294 79.3381 164.378L76.5909 164.925Z" fill="#87929A"/>
<path d="M118.512 54.5133C114.516 54.5133 110.519 55.9973 107.477 58.9581C101.389 64.8869 101.389 74.5184 107.477 80.4534C113.372 86.2006 123.659 86.1936 129.547 80.4534C135.63 74.5184 135.63 64.8869 129.547 58.9581C126.506 55.9973 122.51 54.5133 118.512 54.5133ZM118.512 89.3633C113.119 89.3633 108.053 87.3127 104.236 83.5975C96.3688 75.9378 96.3688 63.4684 104.236 55.8087C112.116 48.1552 124.915 48.1428 132.782 55.8087C140.657 63.4684 140.657 75.9378 132.79 83.5975C128.973 87.3127 123.899 89.3633 118.512 89.3633Z" fill="#87929A"/>
<path d="M118.512 78.5143C116.093 78.5143 113.82 77.597 112.116 75.9378C108.587 72.5015 108.587 66.9109 112.116 63.4746C113.82 61.8092 116.093 60.8981 118.512 60.8981C120.932 60.8981 123.204 61.8092 124.909 63.4746C126.62 65.141 127.562 67.3536 127.562 69.7027C127.562 72.0587 126.62 74.2714 124.909 75.9378C123.198 77.597 120.932 78.5143 118.512 78.5143Z" fill="#87929A"/>
<path d="M178.801 44.3611C178.708 44.3611 178.614 44.3611 178.52 44.3487C169.765 43.3075 161.864 39.5719 155.662 33.5325C149.459 27.4931 145.616 19.7944 144.56 11.282C144.406 10.0521 145.301 8.94624 146.552 8.79661C147.768 8.63369 148.951 9.51822 149.098 10.7357C150.04 18.2653 153.429 25.0529 158.903 30.3831C164.364 35.7062 171.342 39.0052 179.068 39.9234C180.332 40.0731 181.221 41.186 181.067 42.4026C180.927 43.535 179.937 44.3611 178.801 44.3611Z" fill="#87929A"/>
<path d="M24.3562 168.27C21.3482 168.27 19.5971 167.782 19.3772 167.71L18.214 167.366L17.8596 166.233C17.6324 165.517 12.6461 148.538 36.7688 124.915C37.6639 124.05 39.1142 124.043 40.0102 124.908C40.9054 125.774 40.9126 127.187 40.0166 128.065C21.669 146.026 21.5291 159.576 22.0171 163.669C26.1882 164.105 40.1102 164.007 58.5777 146.131C59.4738 145.259 60.9178 145.265 61.8129 146.137C62.7089 147.009 62.7016 148.421 61.8065 149.287C44.8957 165.667 31.2945 168.27 24.3562 168.27Z" fill="#87929A"/>
<path d="M43.0918 145.473C42.5029 145.473 41.915 145.259 41.467 144.822C40.5782 143.957 40.5782 142.545 41.467 141.673L54.8483 128.651C55.7506 127.779 57.1874 127.779 58.0898 128.651C58.9794 129.516 58.9794 130.928 58.0898 131.794L44.7085 144.822C44.2614 145.259 43.6725 145.473 43.0918 145.473Z" fill="#87929A"/>
</svg>
