<svg width="221" height="168" viewBox="0 0 221 168" fill="none" xmlns="http://www.w3.org/2000/svg">
<path d="M198.925 39.3671L163.285 8.20487C162.715 7.70612 161.91 7.41037 161.129 7.4445C160.325 7.45762 159.558 7.756 159.009 8.27225L147.975 18.6602C146.9 19.6752 146.921 21.2467 148.023 22.2381L148.86 22.9915L144.48 26.8223L137.559 25.3102C131.471 23.9706 124.919 25.5623 120.322 29.5899L107.699 42.455L93.0306 29.6292C88.8161 25.9438 82.6802 24.6794 77.0189 26.3235C76.6832 26.4215 76.3684 26.5729 76.0927 26.7645L75.2873 27.3333L73.333 25.6217L77.1738 22.2644C78.3348 21.2494 78.3348 19.6079 77.1738 18.5929L65.2937 8.20487C64.1326 7.18987 62.2552 7.18987 61.0942 8.20487L22.4843 41.9641C21.3233 42.9791 21.3233 44.6206 22.4843 45.6356L34.3644 56.0236C34.9429 56.5294 35.7033 56.784 36.4637 56.784C37.224 56.784 37.9844 56.5294 38.5639 56.0236L39.9058 54.8494L46.9449 61.0041L45.2164 67.0548C43.6896 72.3861 45.5041 78.1095 49.9175 81.9656L75.0765 104.598V124.899C75.0765 129.477 78.053 133.708 82.843 135.946C85.3799 137.128 86.9566 139.426 86.9566 141.943V142.48H83.9871C82.3445 142.48 81.0166 143.641 81.0166 145.077V158.061C81.0166 159.497 82.3445 160.658 83.9871 160.658H140.416C142.059 160.658 143.387 159.497 143.387 158.061V145.077C143.387 143.641 142.059 142.48 140.416 142.48H137.447V139.87L142.154 136.074C146.644 133.118 149.327 128.42 149.327 123.505V93.0851C152.671 92.7526 155.964 91.4156 158.599 89.1074L174.298 74.2009C177.996 70.9678 179.267 66.2655 177.609 61.9281C177.135 60.6769 179.691 56.5766 182.739 53.4345C183.285 53.9044 184.013 54.1774 184.782 54.1844C184.791 54.1844 184.803 54.1844 184.812 54.1844C185.592 54.1844 186.344 53.9149 186.899 53.4345L198.916 43.0465C199.478 42.5609 199.796 41.902 199.799 41.2081C199.802 40.5151 199.486 39.8554 198.925 39.3671ZM36.4637 50.5155L28.7831 43.7999L63.1934 13.713L70.874 20.4286L36.4637 50.5155ZM75.3383 97.3831L54.1439 78.3195C51.1684 75.7181 49.9564 71.8821 50.9756 68.3113L53.1138 60.8353C53.3686 59.9498 53.0688 59.0153 52.3324 58.3713L44.1053 51.1779L69.1335 29.2941L72.9743 32.6515C74.0464 33.5921 75.7599 33.6674 76.936 32.8388L79.3739 31.122C82.7511 30.3065 86.3361 31.1194 88.8311 33.3008L105.201 47.6149C105.192 47.6227 105.18 47.6254 105.171 47.6333C103.838 48.7025 102.855 50.0588 102.306 51.541C100.485 50.6765 98.3791 50.2976 96.2849 50.484C91.0522 50.9416 86.9506 55.0778 86.9506 59.8981V87.0555C81.0675 88.1046 76.4454 92.2101 75.3383 97.3831ZM137.444 155.464H86.9536V147.674H137.444V155.464ZM143.384 123.505C143.384 126.798 141.589 129.943 138.355 132.087L132.466 136.818C131.854 137.309 131.507 138.003 131.507 138.73V142.48H92.8967V141.94C92.8967 137.502 90.114 133.445 85.6377 131.363C82.7901 130.03 81.0166 127.553 81.0166 124.899V99.7798C81.0166 96.3988 83.5085 93.5428 86.9566 92.4674V108.721H92.8967V59.8981C92.8967 57.7115 94.6462 55.8469 96.8824 55.6518C98.1683 55.5503 99.3953 55.8906 100.339 56.6388C101.284 57.3869 101.806 58.415 101.806 59.5263V98.3334H107.746V54.3358C107.746 53.2289 108.26 52.2113 109.19 51.4631C110.119 50.7202 111.319 50.3571 112.605 50.456C114.838 50.6249 116.654 52.5718 116.654 54.7951V98.3334H122.593V62.1259C122.593 61.0199 123.108 60.0014 124.037 59.2541C124.966 58.5112 126.169 58.1525 127.452 58.2461C129.686 58.415 131.501 60.3628 131.501 62.5853V98.3334H137.441V76.8863C140.889 77.9616 143.381 80.8176 143.381 84.1986V123.505H143.384ZM171.976 63.5723C172.911 66.0293 172.193 68.6963 170.012 70.6046L154.313 85.5103C152.87 86.7729 151.111 87.5569 149.324 87.8605V84.196C149.324 77.9249 144.212 72.6793 137.444 71.4744V62.5826C137.444 57.6538 133.282 53.473 127.972 53.0705C126.101 52.9331 124.221 53.2341 122.552 53.9333C122.103 49.3859 118.124 45.6593 113.122 45.2804C112.995 45.2699 112.873 45.2909 112.745 45.2856L124.678 33.117C127.655 30.5147 132.038 29.4578 136.125 30.3459L144.676 32.2157C145.685 32.4389 146.757 32.1764 147.494 31.5324L153.006 26.7129L178.595 49.7236C175.849 52.5044 170.217 58.968 171.976 63.5723ZM184.85 47.9028L154.251 20.3866L161.263 13.7804L192.614 41.1924L184.85 47.9028Z" fill="#87929A"/>
</svg>
